<svg xmlns="http://www.w3.org/2000/svg" width="10.286" height="14.241" viewBox="0 0 10.286 14.241">
  <g id="__TEMP__SVG__" transform="translate(0.2 0.2)">
    <path id="Контур_157" data-name="Контур 157" d="M13.585,3.239A2.471,2.471,0,1,1,11.114,5.71a2.471,2.471,0,0,1,2.471-2.471m0-.989a3.46,3.46,0,1,0,3.46,3.46,3.46,3.46,0,0,0-3.46-3.46Z" transform="translate(-8.642 -2.25)" fill="#e41c26" stroke="#e41c26" stroke-width="0.4"/>
    <path id="Контур_158" data-name="Контур 158" d="M16.636,26.182h-.989V23.71a2.471,2.471,0,0,0-2.471-2.471H10.21A2.471,2.471,0,0,0,7.739,23.71v2.471H6.75V23.71a3.46,3.46,0,0,1,3.46-3.46h2.966a3.46,3.46,0,0,1,3.46,3.46Z" transform="translate(-6.75 -12.341)" fill="#e41c26" stroke="#e41c26" stroke-width="0.4"/>
  </g>
</svg>
