<svg width="101" height="77" viewBox="0 0 101 77" fill="none" xmlns="http://www.w3.org/2000/svg">
<path d="M99.688 63.2679L81.0881 47.8439C80.744 44.4959 78.232 25.4829 64.744 14.0359C58.7325 8.99565 51.2359 6.06253 43.4001 5.68493C42.7074 4.02736 41.5029 2.63469 39.9625 1.71036C38.4221 0.786037 36.6264 0.378492 34.8379 0.547269C33.0494 0.716045 31.3617 1.4523 30.0214 2.64847C28.6811 3.84464 27.7584 5.43805 27.388 7.19594C26.888 7.32894 26.428 7.49594 25.945 7.64794C25.914 7.65894 25.884 7.66394 25.854 7.67694C19.2935 9.57521 13.4848 13.4648 9.23105 18.8079C-2.10495 33.2539 0.978049 53.9809 1.11405 54.8549C1.15715 55.1352 1.27128 55.3998 1.44559 55.6235C1.6199 55.8472 1.84857 56.0225 2.10983 56.1328C2.37109 56.243 2.65623 56.2846 2.93809 56.2535C3.21995 56.2223 3.48915 56.1196 3.72005 55.9549C5.16861 55.0719 6.83458 54.6099 8.53105 54.6209C10.3122 54.7161 12.0358 55.2847 13.524 56.2679C13.5701 56.4245 13.6395 56.5732 13.73 56.7089C14.366 57.5679 28.8171 76.8929 41.4711 76.8919C42.0355 76.8926 42.5993 76.8529 43.1581 76.7729C47.9991 76.0729 53.2761 73.8129 58.8581 71.4209C67.6581 67.6529 77.644 63.3809 87.901 64.4209L98.346 66.1849C98.7066 66.2489 99.0782 66.1908 99.402 66.0196C99.7257 65.8484 99.983 65.574 100.133 65.2399C100.286 64.908 100.325 64.535 100.245 64.1786C100.164 63.8221 99.9686 63.5021 99.688 63.2679ZM77.5741 46.6209C76.0861 46.4989 73.8671 46.3429 71.1531 46.2209L70.9311 44.5909C70.9311 44.5419 70.9181 44.4909 70.91 44.4459C70.536 42.4899 67.521 27.0709 63.486 17.3959C73.731 26.7669 76.787 41.3619 77.5741 46.6209ZM35.606 3.82994C36.3403 3.82881 37.0663 3.98422 37.7357 4.28581C38.4051 4.5874 39.0025 5.02824 39.488 5.57894C38.281 5.59694 37.063 5.63894 35.813 5.74594C34.2131 5.88194 32.684 6.09694 31.19 6.36094C31.6408 5.59003 32.2858 4.9507 33.0606 4.50662C33.8354 4.06255 34.713 3.82924 35.606 3.82994ZM23.666 19.7009C24.0436 16.3953 25.3469 13.2634 27.426 10.6659C30.2552 9.84021 33.1601 9.3005 36.097 9.05494C43.4426 8.20792 50.8731 9.58978 57.423 13.0209C57.431 13.0329 57.431 13.0479 57.439 13.0599C57.924 13.7779 58.375 14.5059 58.778 15.2269C63.507 23.5949 67.4621 44.0759 67.649 45.0569C67.659 45.1436 67.6721 45.2466 67.688 45.3659L67.788 46.1079C61.1712 45.9064 54.5482 46.1402 47.9621 46.8079C40.3299 47.729 32.7595 49.1041 25.291 50.9259C24.701 46.9109 22.168 28.5349 23.666 19.7009ZM8.53105 51.3019C7.03996 51.3036 5.56053 51.5648 4.15905 52.0739C3.72005 46.4359 3.49205 31.4879 11.859 20.8429C14.6594 17.2943 18.2566 14.4555 22.359 12.5569C21.4197 14.6578 20.7607 16.8732 20.399 19.1459C18.76 28.8259 21.535 48.2459 22.057 51.7229C18.901 52.5139 16.513 53.1729 15.366 53.4979C13.3297 52.1581 10.9667 51.3989 8.53105 51.3019ZM88.3501 61.1299C77.1151 59.9939 66.7261 64.4439 57.555 68.3709C52.174 70.6709 47.092 72.8499 42.681 73.4889C34.258 74.7159 22.713 62.6889 17.624 56.3149C27.6943 53.51 37.9545 51.4379 48.3241 50.1149C58.3694 49.163 68.4811 49.1382 78.5311 50.0409L92.813 61.8819L88.3501 61.1299Z" fill="white"/>
</svg>
