<svg xmlns="http://www.w3.org/2000/svg" width="13.658" height="14.014" viewBox="0 0 13.658 14.014">
  <g id="calendar4" transform="translate(-0.149 0.2)">
    <path id="Контур_159" data-name="Контур 159" d="M11.556,3.04H1.7a.822.822,0,0,0-.851.79v8.692a.822.822,0,0,0,.851.79h9.855a.822.822,0,0,0,.851-.79V3.83A.822.822,0,0,0,11.556,3.04ZM1.7,2.25A1.644,1.644,0,0,0,0,3.83v8.692A1.644,1.644,0,0,0,1.7,14.1h9.855a1.644,1.644,0,0,0,1.7-1.58V3.83a1.644,1.644,0,0,0-1.7-1.58Z" transform="translate(0.349 -0.49)" fill="#e41c26" stroke="#e41c26" stroke-width="0.4" fill-rule="evenodd"/>
    <path id="Контур_160" data-name="Контур 160" d="M11.545,3.128,1.7,3.1a.851.851,0,0,0-.851.851V4.8L12.4,4.829V3.978A.851.851,0,0,0,11.545,3.128ZM1.7,2.25A1.7,1.7,0,0,0,0,3.952v1.7l13.247.027v-1.7a1.7,1.7,0,0,0-1.7-1.7Z" transform="translate(0.349 -0.49)" fill="#e41c26" stroke="#e41c26" stroke-width="0.4" fill-rule="evenodd"/>
    <path id="Контур_161" data-name="Контур 161" d="M10.175,0A.425.425,0,0,1,10.6.425V1.758a.425.425,0,1,1-.851,0V.425A.425.425,0,0,1,10.175,0Zm6.3,0A.425.425,0,0,1,16.9.425V1.758a.425.425,0,1,1-.851,0V.425A.425.425,0,0,1,16.472,0Z" transform="translate(-6.401 0)" fill="#e41c26" stroke="#e41c26" stroke-width="0.4" fill-rule="evenodd"/>
  </g>
</svg>
