<svg width="64" height="63" viewBox="0 0 64 63" fill="none" xmlns="http://www.w3.org/2000/svg">
<path d="M60.275 48.6337V34.4217C60.2762 34.1467 60.1683 33.8824 59.975 33.6867L54.475 28.1867H58.2C58.4012 28.1866 58.598 28.1281 58.7666 28.0185C58.9352 27.9088 59.0684 27.7525 59.15 27.5687L63.31 18.2097C63.3716 18.0709 63.402 17.9203 63.3992 17.7685C63.3963 17.6167 63.3603 17.4674 63.2936 17.331C63.2269 17.1947 63.1311 17.0745 63.013 16.9791C62.8949 16.8837 62.7574 16.8153 62.61 16.7787L58.45 15.7387C58.2205 15.6814 57.9783 15.7041 57.7635 15.803C57.5486 15.9019 57.3738 16.0711 57.268 16.2827L54.436 21.9477H42.6C42.3242 21.9477 42.0597 22.0573 41.8647 22.2523C41.6696 22.4473 41.56 22.7119 41.56 22.9877V27.1477C41.56 27.4235 41.6696 27.688 41.8647 27.8831C42.0597 28.0781 42.3242 28.1877 42.6 28.1877H46.329L54.039 35.8977V48.6047L49.392 54.1817H42.725L42.849 54.1507C42.988 54.1159 43.1184 54.0527 43.2318 53.9652C43.3453 53.8777 43.4394 53.7676 43.5083 53.642C43.5772 53.5164 43.6194 53.3779 43.6323 53.2352C43.6452 53.0924 43.6284 52.9486 43.583 52.8127L42.543 49.6927C42.474 49.4856 42.3415 49.3055 42.1643 49.1778C41.9872 49.0502 41.7744 48.9816 41.556 48.9817H38.191L35.281 38.3047C35.263 38.2388 35.2386 38.1748 35.208 38.1137L30.118 27.9337V24.8047L32.058 25.9537C32.2185 26.0487 32.4016 26.0988 32.588 26.0987H35.448C35.687 26.0986 35.9187 26.0163 36.1041 25.8655C36.2895 25.7147 36.4173 25.5047 36.466 25.2707L37.116 22.1507C37.1453 22.0101 37.1452 21.8649 37.1156 21.7243C37.086 21.5837 37.0276 21.4508 36.944 21.334C36.8605 21.2171 36.7537 21.1188 36.6303 21.0452C36.5069 20.9717 36.3696 20.9245 36.227 20.9067L33.527 20.5687L31.127 17.6117C31.4855 17.0059 31.6742 16.3148 31.6731 15.6109C31.6721 14.907 31.4814 14.2164 31.121 13.6117L29.081 10.2117V9.45969H29.341C29.8236 9.45916 30.2862 9.26724 30.6274 8.92604C30.9686 8.58484 31.1605 8.12222 31.161 7.63969V3.78169C31.1605 3.25344 31.0376 2.7325 30.802 2.25969C30.4931 1.63677 30.0222 1.10847 29.4387 0.730184C28.8553 0.351902 28.1808 0.137576 27.486 0.109688C27.4535 0.105554 27.4208 0.103884 27.388 0.104689H24C23.164 0.102504 22.3358 0.26612 21.5634 0.586071C20.791 0.906022 20.0897 1.37596 19.5 1.96869C19.1029 2.36791 18.6305 2.68439 18.1103 2.89981C17.59 3.11523 17.0321 3.22531 16.469 3.22369H13.479C13.2735 3.22384 13.0725 3.28492 12.9017 3.39921C12.7308 3.5135 12.5976 3.67586 12.5189 3.8658C12.4403 4.05574 12.4197 4.26473 12.4598 4.46637C12.4998 4.668 12.5988 4.85324 12.744 4.99869L14.304 6.55869C14.8937 7.15142 15.595 7.62136 16.3674 7.94131C17.1398 8.26126 17.968 8.42487 18.804 8.42269H19.146C20.4029 8.42395 21.6319 8.05189 22.677 7.35369L22.838 7.24569V9.46269C22.778 9.46318 22.7181 9.46887 22.659 9.47969C21.7296 9.56071 20.8589 9.9681 20.201 10.6297L15.584 15.2467C15.245 15.5839 14.9762 15.9851 14.7932 16.4269C14.6102 16.8687 14.5167 17.3425 14.518 17.8207V17.8827C14.5188 18.7341 14.8174 19.5583 15.362 20.2127L19.962 25.7297C20.0598 25.8469 20.1821 25.9412 20.3204 26.0058C20.4586 26.0705 20.6094 26.1039 20.762 26.1037H21.516C21.3204 27.2623 21.3568 28.4482 21.623 29.5927L18.823 37.9857L10.873 44.9417L7.95204 45.9157C7.69091 46.003 7.47511 46.1904 7.35204 46.4367L6.31204 48.5167C6.23392 48.6732 6.19654 48.8469 6.20335 49.0217C6.21017 49.1965 6.26097 49.3667 6.35104 49.5167L9.15104 54.1817H5.16004C4.60838 54.1731 4.06053 54.2744 3.54838 54.4796C3.03623 54.6848 2.57002 54.9898 2.17688 55.3769C1.78373 55.764 1.47152 56.2254 1.25841 56.7343C1.0453 57.2432 0.935547 57.7895 0.935547 58.3412C0.935547 58.8929 1.0453 59.4391 1.25841 59.948C1.47152 60.4569 1.78373 60.9184 2.17688 61.3055C2.57002 61.6926 3.03623 61.9976 3.54838 62.2028C4.06053 62.408 4.60838 62.5092 5.16004 62.5007H62.36C62.4966 62.5007 62.6319 62.4738 62.758 62.4215C62.8842 62.3693 62.9989 62.2927 63.0954 62.1961C63.192 62.0995 63.2686 61.9849 63.3209 61.8587C63.3731 61.7325 63.4 61.5973 63.4 61.4607V53.1407C63.4 52.9157 63.3271 52.6967 63.192 52.5167L60.275 48.6337ZM30.118 19.6767L32.17 22.2047C32.3392 22.4133 32.5825 22.5484 32.849 22.5817L34.849 22.8317L34.6 24.0227H32.873L30.117 22.3897L30.118 19.6767ZM33.3 38.9547L36.113 49.2697L33.843 49.8367L31.614 44.6367C31.2757 43.8465 31.0008 43.0306 30.792 42.1967L30.086 39.3707C30.0543 39.2442 29.999 39.1248 29.923 39.0187L24.773 31.8047L24.2 30.6587C23.9958 30.2494 23.8323 29.821 23.712 29.3797C23.712 29.3607 23.702 29.3407 23.696 29.3227C23.4173 28.2708 23.394 27.1675 23.628 26.1047H28.037V28.1847C28.0371 28.3461 28.0747 28.5053 28.147 28.6497L33.3 38.9547ZM32.944 54.1807H13.644L13.804 54.1277C14.011 54.0587 14.191 53.9263 14.3186 53.7494C14.4462 53.5724 14.5149 53.3598 14.515 53.1417V49.5417L23.415 43.6107C23.5828 43.499 23.7145 43.3409 23.794 43.1557L26.241 37.4447L28.116 40.0707L28.775 42.7047C29.0107 43.6462 29.321 44.5675 29.703 45.4597L32.249 51.3977L32.944 54.1807ZM25.321 24.0227C25.321 24.0227 25.958 22.0517 25.958 21.9427H28.038V24.0227H25.321ZM29.335 14.6867C29.5413 15.0322 29.6274 15.4361 29.58 15.8357C29.4221 15.7475 29.2438 15.7022 29.063 15.7043C28.8821 15.7064 28.7049 15.7559 28.5491 15.8477C28.3933 15.9395 28.2642 16.0705 28.1747 16.2277C28.0852 16.3849 28.0384 16.5628 28.039 16.7437V19.8637H23.879V17.4937L26.288 16.6937C26.4957 16.6247 26.6762 16.492 26.8041 16.3144C26.9319 16.1368 27.0005 15.9235 27 15.7047V13.4447C27.0007 12.7808 26.8342 12.1274 26.516 11.5447H27.452L29.335 14.6867ZM24.918 4.62469C24.9171 4.31724 24.9772 4.01266 25.0948 3.72858C25.2124 3.4445 25.3851 3.18656 25.603 2.96969L25.737 2.83569C25.9431 2.62839 26.1882 2.46403 26.4582 2.35211C26.7282 2.24019 27.0178 2.18295 27.31 2.18369C27.7426 2.1828 28.1612 2.33675 28.49 2.61769L26.511 3.27769C26.25 3.36509 26.0342 3.55245 25.911 3.79869L25.158 5.30469H24.918V4.62469ZM24.918 7.38469H25.8C25.9932 7.38464 26.1824 7.33083 26.3467 7.22927C26.511 7.12771 26.6437 6.98243 26.73 6.80969L27.577 5.11469L29.077 4.61469V7.38369H28.037C27.7617 7.38448 27.498 7.4944 27.3036 7.68936C27.1092 7.88431 27 8.14838 27 8.42369V9.46369H24.92L24.918 7.38469ZM21.523 5.62469C20.8195 6.09474 19.9922 6.34533 19.146 6.34469H18.805C17.7767 6.34785 16.782 5.9784 16.005 5.30469H16.472C17.3081 5.30687 18.1363 5.14326 18.9087 4.82331C19.6811 4.50336 20.3824 4.03342 20.972 3.44069C21.6648 2.7421 22.5784 2.30529 23.557 2.20469C23.0861 2.92268 22.8361 3.76304 22.838 4.62169V4.74469L21.523 5.62469ZM21.245 24.0247L16.96 18.8807C16.7266 18.5998 16.5988 18.246 16.599 17.8807V17.8187C16.5989 17.6143 16.6391 17.4118 16.7176 17.223C16.796 17.0342 16.911 16.8628 17.056 16.7187L21.672 12.1047C21.9377 11.8381 22.2765 11.6564 22.6455 11.5826C23.0145 11.5088 23.3972 11.5462 23.7449 11.6902C24.0926 11.8342 24.3897 12.0782 24.5986 12.3912C24.8075 12.7043 24.9186 13.0723 24.918 13.4487V14.9577L23.118 15.5577L22.533 14.9727C22.4365 14.8761 22.3218 14.7994 22.1956 14.7472C22.0694 14.6949 21.9341 14.668 21.7975 14.668C21.6609 14.668 21.5257 14.6949 21.3995 14.7472C21.2733 14.7994 21.1586 14.8761 21.062 14.9727L18.982 17.0527C18.8121 17.2227 18.7063 17.4463 18.6826 17.6855C18.6589 17.9246 18.7188 18.1647 18.852 18.3647L20.932 21.4847C21.0601 21.6772 21.2487 21.8215 21.468 21.8947L23.6 22.6047L23.126 24.0267L21.245 24.0247ZM21.798 17.1757V19.0297L21.056 17.9177L21.798 17.1757ZM20.398 39.3657C20.5366 39.2437 20.6401 39.087 20.698 38.9117L22.816 32.5577L22.941 32.8077C22.9653 32.8562 22.9934 32.9026 23.025 32.9467L24.825 35.4597L22 42.0477L13.763 47.5387L12.763 46.0387L20.398 39.3657ZM8.42504 48.9347L9.01704 47.7507L10.975 47.0977L12.44 49.2977V52.3977L10.823 52.9367L8.42504 48.9347ZM5.16004 60.4197C4.74866 60.4197 4.34651 60.2977 4.00446 60.0691C3.6624 59.8406 3.3958 59.5157 3.23837 59.1357C3.08094 58.7556 3.03975 58.3374 3.12001 57.9339C3.20027 57.5304 3.39837 57.1598 3.68926 56.8689C3.98015 56.578 4.35077 56.3799 4.75425 56.2997C5.15773 56.2194 5.57595 56.2606 5.95603 56.418C6.3361 56.5754 6.66095 56.842 6.8895 57.1841C7.11805 57.5262 7.24004 57.9283 7.24004 58.3397C7.24004 58.8913 7.0209 59.4204 6.63082 59.8105C6.24075 60.2005 5.71169 60.4197 5.16004 60.4197ZM18.199 60.4197H8.76004C9.12663 59.7878 9.31971 59.0702 9.31971 58.3397C9.31971 57.6091 9.12663 56.8916 8.76004 56.2597H18.2C17.8335 56.8916 17.6404 57.6091 17.6404 58.3397C17.6404 59.0702 17.8335 59.7878 18.2 60.4197H18.199ZM21.799 60.4197C21.3877 60.4197 20.9855 60.2977 20.6435 60.0691C20.3014 59.8406 20.0348 59.5157 19.8774 59.1357C19.7199 58.7556 19.6788 58.3374 19.759 57.9339C19.8393 57.5304 20.0374 57.1598 20.3283 56.8689C20.6192 56.578 20.9898 56.3799 21.3933 56.2997C21.7967 56.2194 22.215 56.2606 22.595 56.418C22.9751 56.5754 23.2999 56.842 23.5285 57.1841C23.7571 57.5262 23.879 57.9283 23.879 58.3397C23.879 58.8912 23.66 59.4201 23.2702 59.8101C22.8803 60.2002 22.3515 60.4194 21.8 60.4197H21.799ZM34.838 60.4197H25.4C25.7666 59.7878 25.9597 59.0702 25.9597 58.3397C25.9597 57.6091 25.7666 56.8916 25.4 56.2597H34.839C34.4725 56.8916 34.2794 57.6091 34.2794 58.3397C34.2794 59.0702 34.4725 59.7878 34.839 60.4197H34.838ZM38.438 60.4197C38.0267 60.4197 37.6245 60.2977 37.2825 60.0691C36.9404 59.8406 36.6738 59.5157 36.5164 59.1357C36.3589 58.7556 36.3178 58.3374 36.398 57.9339C36.4783 57.5304 36.6764 57.1598 36.9673 56.8689C37.2582 56.578 37.6288 56.3799 38.0323 56.2997C38.4357 56.2194 38.854 56.2606 39.234 56.418C39.6141 56.5754 39.9389 56.842 40.1675 57.1841C40.3961 57.5262 40.518 57.9283 40.518 58.3397C40.518 58.8913 40.2989 59.4204 39.9088 59.8105C39.5187 60.2005 38.9897 60.4197 38.438 60.4197ZM35.038 53.9597L34.5 51.8177L37.527 51.0607H40.809L41.257 52.4037L35.038 53.9597ZM48.838 60.4197H42.038C42.4046 59.7878 42.5977 59.0702 42.5977 58.3397C42.5977 57.6091 42.4046 56.8916 42.038 56.2597H48.838V60.4197ZM43.637 26.1047V24.0247H55.076C55.2692 24.0246 55.4585 23.9708 55.6227 23.8693C55.787 23.7677 55.9197 23.6224 56.006 23.4497L58.753 17.9557L60.903 18.4937L57.52 26.1047H43.637ZM49.267 28.1847H51.525L58.195 34.8547V47.9407H56.115V35.4617C56.1162 35.1867 56.0083 34.9224 55.815 34.7267L49.267 28.1847ZM61.315 60.4197H50.915V55.5967L55.562 50.0197H58.715L61.315 53.4857V60.4197Z" fill="#E41C26"/>
</svg>
