<svg xmlns="http://www.w3.org/2000/svg" width="113.761" height="149.031" viewBox="0 0 113.761 149.031">
  <g id="clipboard" transform="translate(0.5 0.5)" opacity="0.2">
    <path id="Контур_59" data-name="Контур 59" d="M140.875,142.512h9.892a3.563,3.563,0,0,0,3.56-3.559V129.07a3.564,3.564,0,0,0-3.56-3.559h-9.892a3.564,3.564,0,0,0-3.56,3.559v9.883A3.564,3.564,0,0,0,140.875,142.512Zm.81-12.631h8.271v8.262h-8.271Z" transform="translate(-115.253 -89.225)" fill="#fff" stroke="#fff" stroke-width="1"/>
    <path id="Контур_60" data-name="Контур 60" d="M140.875,220.708h9.892a3.564,3.564,0,0,0,3.56-3.559v-9.891a3.564,3.564,0,0,0-3.56-3.559h-9.892a3.564,3.564,0,0,0-3.56,3.559v9.891A3.564,3.564,0,0,0,140.875,220.708Zm.81-12.64h8.271v8.27h-8.271Z" transform="translate(-115.253 -144.808)" fill="#fff" stroke="#fff" stroke-width="1"/>
    <path id="Контур_61" data-name="Контур 61" d="M140.875,298.914h9.892a3.564,3.564,0,0,0,3.56-3.559v-9.883a3.564,3.564,0,0,0-3.56-3.559h-9.892a3.564,3.564,0,0,0-3.56,3.559v9.883A3.564,3.564,0,0,0,140.875,298.914Zm.81-12.632h8.271v8.262h-8.271Z" transform="translate(-115.253 -200.411)" fill="#fff" stroke="#fff" stroke-width="1"/>
    <path id="Контур_62" data-name="Контур 62" d="M271.023,136.718h13.472a2.185,2.185,0,1,0,0-4.37H271.023a2.185,2.185,0,1,0,0,4.37Z" transform="translate(-208.752 -94.086)" fill="#fff" stroke="#fff" stroke-width="1"/>
    <path id="Контур_63" data-name="Контур 63" d="M221.16,136.718H226.9a2.185,2.185,0,1,0,0-4.37H221.16a2.185,2.185,0,1,0,0,4.37Z" transform="translate(-173.305 -94.086)" fill="#fff" stroke="#fff" stroke-width="1"/>
    <path id="Контур_64" data-name="Контур 64" d="M221.16,166.709h27.887a2.185,2.185,0,1,0,0-4.369H221.16a2.185,2.185,0,1,0,0,4.369Z" transform="translate(-173.305 -115.407)" fill="#fff" stroke="#fff" stroke-width="1"/>
    <path id="Контур_65" data-name="Контур 65" d="M221.16,214.934h27.887a2.185,2.185,0,1,0,0-4.37H221.16a2.185,2.185,0,1,0,0,4.37Z" transform="translate(-173.305 -149.689)" fill="#fff" stroke="#fff" stroke-width="1"/>
    <path id="Контур_66" data-name="Контур 66" d="M221.16,371.336h8.778a2.185,2.185,0,1,0,0-4.37H221.16a2.185,2.185,0,1,0,0,4.37Z" transform="translate(-173.305 -260.875)" fill="#fff" stroke="#fff" stroke-width="1"/>
    <path id="Контур_67" data-name="Контур 67" d="M221.16,401.327h5.418a2.185,2.185,0,1,0,0-4.369H221.16a2.185,2.185,0,1,0,0,4.369Z" transform="translate(-173.305 -282.196)" fill="#fff" stroke="#fff" stroke-width="1"/>
    <path id="Контур_68" data-name="Контур 68" d="M221.16,244.925h13.472a2.185,2.185,0,1,0,0-4.37H221.16a2.185,2.185,0,1,0,0,4.37Z" transform="translate(-173.305 -171.01)" fill="#fff" stroke="#fff" stroke-width="1"/>
    <path id="Контур_69" data-name="Контур 69" d="M303.5,240.555h-5.743a2.185,2.185,0,1,0,0,4.37H303.5a2.185,2.185,0,1,0,0-4.37Z" transform="translate(-227.755 -171.01)" fill="#fff" stroke="#fff" stroke-width="1"/>
    <path id="Контур_70" data-name="Контур 70" d="M221.16,293.12h27.887a2.185,2.185,0,1,0,0-4.37H221.16a2.185,2.185,0,1,0,0,4.37Z" transform="translate(-173.305 -205.272)" fill="#fff" stroke="#fff" stroke-width="1"/>
    <path id="Контур_71" data-name="Контур 71" d="M221.16,323.141h13.472a2.185,2.185,0,1,0,0-4.37H221.16a2.185,2.185,0,1,0,0,4.37Z" transform="translate(-173.305 -226.613)" fill="#fff" stroke="#fff" stroke-width="1"/>
    <path id="Контур_72" data-name="Контур 72" d="M303.5,318.77h-5.743a2.185,2.185,0,1,0,0,4.369H303.5a2.185,2.185,0,1,0,0-4.369Z" transform="translate(-227.755 -226.613)" fill="#fff" stroke="#fff" stroke-width="1"/>
    <path id="Контур_73" data-name="Контур 73" d="M170.946,108.274a13.216,13.216,0,0,0-9.1-5.519,21.568,21.568,0,0,0,1.5-14.29,2.185,2.185,0,0,0-2.354-1.687V63.043a2.185,2.185,0,0,0-4.371,0V87.865a21.441,21.441,0,0,0-6.026,3.3v-62.5A3.673,3.673,0,0,0,146.921,25H135.277V19.181h21.344V53.1a2.185,2.185,0,0,0,4.371,0V18.412a3.6,3.6,0,0,0-3.6-3.6h-22.63a3.435,3.435,0,0,0-2.922-1.635H121.618V10.254a10.255,10.255,0,0,0-20.51,0v2.923H90.163a3.446,3.446,0,0,0-2.929,1.635H64.6a3.6,3.6,0,0,0-3.6,3.6v120.1a3.6,3.6,0,0,0,3.6,3.6h65.48a15.666,15.666,0,0,0,4.588,4.493,9.859,9.859,0,0,0,5.139,1.418,14.766,14.766,0,0,0,6.614-1.776c1.69-.851,1.69-.851,3.378,0,4.445,2.242,8.4,2.363,11.758.359,3.167-1.891,5.339-5.376,7.045-8.535,4.03-7.461,7.979-21.553,2.341-29.793ZM149.884,98.239a16.71,16.71,0,0,1,9.56-6.683,16.717,16.717,0,0,1-2.459,10.952c-.695.036-1.417.1-2.173.191a14.84,14.84,0,0,0-6.022,2.021c-.231.13-.507.286-.672.359-.165-.073-.441-.229-.672-.359l-.128-.072A16.05,16.05,0,0,1,149.884,98.239ZM105.479,10.254a5.885,5.885,0,0,1,11.769,0v2.923H105.479ZM91.088,17.547h39.819v9.092H91.088ZM65.373,137.74V19.181H86.717V25H75.073A3.674,3.674,0,0,0,71.4,28.669V53.1a2.185,2.185,0,0,0,4.371,0V29.373H87.235a3.446,3.446,0,0,0,2.929,1.635h41.676a3.436,3.436,0,0,0,2.922-1.635h11.464V95.849a20.329,20.329,0,0,0-3.049,7.158,17.608,17.608,0,0,0-1.76-.308c-9.376-1.171-13.945,2.383-16.127,5.57-3.529,5.154-3.3,12.6-1.655,19.286H98.556V109.61a3.678,3.678,0,0,0-3.674-3.673H75.77V63.043a2.185,2.185,0,0,0-4.371,0v45.078a2.185,2.185,0,0,0,.681,1.585l22.786,21.62a2.184,2.184,0,0,0,1.5.6h28.573a44.11,44.11,0,0,0,2.507,5.814Zm28.813-27.434v14.35l-15.124-14.35Zm70.574,25.685c-4.146,7.676-7.3,9.22-12.99,6.35-2.972-1.5-4.338-1.5-7.313,0-5.685,2.87-8.841,1.327-12.987-6.35a39.649,39.649,0,0,1-2.871-6.869c-.006-.021-.013-.042-.02-.064-2.121-6.788-2.524-14.168.319-18.322,1.776-2.594,4.788-3.9,8.977-3.9a14.514,14.514,0,0,1,7.142,1.53,5.926,5.926,0,0,0,3.516,1.087,9.109,9.109,0,0,0,3.124-1.321,11,11,0,0,1,3.7-1.1c5.779-.721,9.811.526,11.987,3.706C171.207,116.395,169.064,128.019,164.759,135.991Z" transform="translate(-61.002 0)" fill="#fff" stroke="#fff" stroke-width="1"/>
  </g>
</svg>
