<svg width="54" height="70" viewBox="0 0 54 70" fill="none" xmlns="http://www.w3.org/2000/svg">
<path d="M12.8591 25.3651H17.4381C17.8749 25.3648 18.2937 25.1912 18.6027 24.8824C18.9117 24.5737 19.0855 24.1549 19.0861 23.7181V19.1441C19.0855 18.7072 18.9117 18.2885 18.6027 17.9797C18.2937 17.6709 17.8749 17.4973 17.4381 17.4971H12.8591C12.4222 17.4973 12.0034 17.6709 11.6944 17.9797C11.3854 18.2885 11.2116 18.7072 11.2111 19.1441V23.7181C11.2116 24.1549 11.3854 24.5737 11.6944 24.8824C12.0034 25.1912 12.4222 25.3648 12.8591 25.3651ZM13.2341 19.5191H17.0621V23.3431H13.2341V19.5191Z" fill="white" stroke="white"/>
<path d="M12.8591 35.8312H17.4381C17.8749 35.831 18.2937 35.6574 18.6027 35.3486C18.9117 35.0398 19.0855 34.621 19.0861 34.1842V29.6062C19.0855 29.1694 18.9117 28.7506 18.6027 28.4418C18.2937 28.1331 17.8749 27.9595 17.4381 27.9592H12.8591C12.4222 27.9595 12.0034 28.1331 11.6944 28.4418C11.3854 28.7506 11.2116 29.1694 11.2111 29.6062V34.1842C11.2119 34.621 11.3858 35.0396 11.6947 35.3483C12.0036 35.657 12.4223 35.8307 12.8591 35.8312V35.8312ZM13.2341 29.9802H17.0621V33.8082H13.2341V29.9802Z" fill="white" stroke="white"/>
<path d="M12.8591 46.2931H17.4381C17.8749 46.2928 18.2937 46.1192 18.6027 45.8105C18.9117 45.5017 19.0855 45.0829 19.0861 44.6461V40.0711C19.0855 39.6343 18.9117 39.2155 18.6027 38.9067C18.2937 38.5979 17.8749 38.4243 17.4381 38.4241H12.8591C12.4222 38.4243 12.0034 38.5979 11.6944 38.9067C11.3854 39.2155 11.2116 39.6343 11.2111 40.0711V44.6451C11.2116 45.082 11.3854 45.5009 11.6943 45.8098C12.0033 46.1188 12.4221 46.2926 12.8591 46.2931ZM13.2341 40.4471H17.0621V44.2711H13.2341V40.4471Z" fill="white" stroke="white"/>
<path d="M29.821 20.4321H36.0561C36.3242 20.4321 36.5813 20.3256 36.7709 20.136C36.9605 19.9464 37.067 19.6893 37.067 19.4211C37.067 19.153 36.9605 18.8959 36.7709 18.7063C36.5813 18.5167 36.3242 18.4102 36.0561 18.4102H29.821C29.5529 18.4102 29.2958 18.5167 29.1062 18.7063C28.9166 18.8959 28.8101 19.153 28.8101 19.4211C28.8101 19.6893 28.9166 19.9464 29.1062 20.136C29.2958 20.3256 29.5529 20.4321 29.821 20.4321V20.4321Z" fill="white" stroke="white"/>
<path d="M23.149 20.4321H25.8071C26.0752 20.4321 26.3323 20.3256 26.5219 20.136C26.7115 19.9464 26.8181 19.6893 26.8181 19.4211C26.8181 19.153 26.7115 18.8959 26.5219 18.7063C26.3323 18.5167 26.0752 18.4102 25.8071 18.4102H23.149C22.8809 18.4102 22.6238 18.5167 22.4342 18.7063C22.2446 18.8959 22.1381 19.153 22.1381 19.4211C22.1381 19.6893 22.2446 19.9464 22.4342 20.136C22.6238 20.3256 22.8809 20.4321 23.149 20.4321V20.4321Z" fill="white" stroke="white"/>
<path d="M23.149 24.4461H36.0561C36.1888 24.4461 36.3203 24.4199 36.4429 24.3691C36.5656 24.3183 36.6771 24.2438 36.7709 24.15C36.8648 24.0561 36.9393 23.9446 36.9901 23.822C37.0409 23.6993 37.0671 23.5678 37.0671 23.4351C37.0671 23.3023 37.0409 23.1708 36.9901 23.0482C36.9393 22.9255 36.8648 22.8141 36.7709 22.7202C36.6771 22.6263 36.5656 22.5518 36.4429 22.501C36.3203 22.4502 36.1888 22.4241 36.0561 22.4241H23.149C23.0163 22.4241 22.8848 22.4502 22.7622 22.501C22.6395 22.5518 22.5281 22.6263 22.4342 22.7202C22.3403 22.8141 22.2658 22.9255 22.215 23.0482C22.1642 23.1708 22.1381 23.3023 22.1381 23.4351C22.1381 23.5678 22.1642 23.6993 22.215 23.822C22.2658 23.9446 22.3403 24.0561 22.4342 24.15C22.5281 24.2438 22.6395 24.3183 22.7622 24.3691C22.8848 24.4199 23.0163 24.4461 23.149 24.4461V24.4461Z" fill="white" stroke="white"/>
<path d="M23.149 30.8982H36.0561C36.3242 30.8982 36.5813 30.7917 36.7709 30.6021C36.9605 30.4125 37.0671 30.1554 37.0671 29.8872C37.0671 29.6191 36.9605 29.3619 36.7709 29.1723C36.5813 28.9827 36.3242 28.8762 36.0561 28.8762H23.149C22.8809 28.8762 22.6238 28.9827 22.4342 29.1723C22.2446 29.3619 22.1381 29.6191 22.1381 29.8872C22.1381 30.1554 22.2446 30.4125 22.4342 30.6021C22.6238 30.7917 22.8809 30.8982 23.149 30.8982V30.8982Z" fill="white" stroke="white"/>
<path d="M23.149 51.8272H27.2121C27.4802 51.8272 27.7373 51.7207 27.9269 51.5311C28.1165 51.3415 28.2231 51.0843 28.2231 50.8162C28.2231 50.548 28.1165 50.2909 27.9269 50.1013C27.7373 49.9117 27.4802 49.8052 27.2121 49.8052H23.149C22.8809 49.8052 22.6238 49.9117 22.4342 50.1013C22.2446 50.2909 22.1381 50.548 22.1381 50.8162C22.1381 51.0843 22.2446 51.3415 22.4342 51.5311C22.6238 51.7207 22.8809 51.8272 23.149 51.8272V51.8272Z" fill="white" stroke="white"/>
<path d="M23.149 55.8401H25.6571C25.9252 55.8401 26.1823 55.7336 26.3719 55.544C26.5615 55.3544 26.6681 55.0972 26.6681 54.8291C26.6681 54.561 26.5615 54.3038 26.3719 54.1142C26.1823 53.9246 25.9252 53.8181 25.6571 53.8181H23.149C22.8809 53.8181 22.6238 53.9246 22.4342 54.1142C22.2446 54.3038 22.1381 54.561 22.1381 54.8291C22.1381 55.0972 22.2446 55.3544 22.4342 55.544C22.6238 55.7336 22.8809 55.8401 23.149 55.8401V55.8401Z" fill="white" stroke="white"/>
<path d="M23.149 34.9121H29.384C29.6522 34.9121 29.9093 34.8056 30.0989 34.616C30.2885 34.4264 30.3951 34.1693 30.3951 33.9011C30.3951 33.633 30.2885 33.3759 30.0989 33.1863C29.9093 32.9967 29.6522 32.8901 29.384 32.8901H23.149C22.8809 32.8901 22.6238 32.9967 22.4342 33.1863C22.2446 33.3759 22.1381 33.633 22.1381 33.9011C22.1381 34.1693 22.2446 34.4264 22.4342 34.616C22.6238 34.8056 22.8809 34.9121 23.149 34.9121V34.9121Z" fill="white" stroke="white"/>
<path d="M36.0571 32.8901H33.3981C33.1299 32.8901 32.8728 32.9967 32.6832 33.1863C32.4936 33.3759 32.3871 33.633 32.3871 33.9011C32.3871 34.1693 32.4936 34.4264 32.6832 34.616C32.8728 34.8056 33.1299 34.9121 33.3981 34.9121H36.0561C36.3242 34.9121 36.5814 34.8056 36.771 34.616C36.9606 34.4264 37.0671 34.1693 37.0671 33.9011C37.0671 33.633 36.9606 33.3759 36.771 33.1863C36.5814 32.9967 36.3242 32.8901 36.0561 32.8901H36.0571Z" fill="white" stroke="white"/>
<path d="M23.149 41.3601H36.0561C36.3242 41.3601 36.5813 41.2536 36.7709 41.064C36.9605 40.8744 37.0671 40.6173 37.0671 40.3491C37.0671 40.081 36.9605 39.8238 36.7709 39.6342C36.5813 39.4446 36.3242 39.3381 36.0561 39.3381H23.149C22.8809 39.3381 22.6238 39.4446 22.4342 39.6342C22.2446 39.8238 22.1381 40.081 22.1381 40.3491C22.1381 40.6173 22.2446 40.8744 22.4342 41.064C22.6238 41.2536 22.8809 41.3601 23.149 41.3601V41.3601Z" fill="white" stroke="white"/>
<path d="M23.149 45.3782H29.384C29.6522 45.3782 29.9093 45.2717 30.0989 45.0821C30.2885 44.8925 30.3951 44.6354 30.3951 44.3672C30.3951 44.0991 30.2885 43.8419 30.0989 43.6523C29.9093 43.4627 29.6522 43.3562 29.384 43.3562H23.149C22.8809 43.3562 22.6238 43.4627 22.4342 43.6523C22.2446 43.8419 22.1381 44.0991 22.1381 44.3672C22.1381 44.6354 22.2446 44.8925 22.4342 45.0821C22.6238 45.2717 22.8809 45.3782 23.149 45.3782V45.3782Z" fill="white" stroke="white"/>
<path d="M36.0571 43.3552H33.3981C33.1299 43.3552 32.8728 43.4617 32.6832 43.6513C32.4936 43.8409 32.3871 44.0981 32.3871 44.3662C32.3871 44.6344 32.4936 44.8915 32.6832 45.0811C32.8728 45.2707 33.1299 45.3772 33.3981 45.3772H36.0561C36.3242 45.3772 36.5814 45.2707 36.771 45.0811C36.9606 44.8915 37.0671 44.6344 37.0671 44.3662C37.0671 44.0981 36.9606 43.8409 36.771 43.6513C36.5814 43.4617 36.3242 43.3552 36.0561 43.3552H36.0571Z" fill="white" stroke="white"/>
<path d="M51.887 50.8152C51.4003 50.1208 50.7746 49.5351 50.0495 49.0955C49.3244 48.6558 48.5158 48.3717 47.675 48.2612C48.6559 46.2008 48.9012 43.8665 48.37 41.6472C48.3152 41.4065 48.1741 41.1942 47.9735 41.0503C47.7729 40.9065 47.5266 40.841 47.281 40.8662V29.8802C47.281 29.6119 47.1745 29.3546 46.9848 29.1649C46.7951 28.9753 46.5378 28.8687 46.2695 28.8687C46.0013 28.8687 45.744 28.9753 45.5543 29.1649C45.3646 29.3546 45.258 29.6119 45.258 29.8802V41.3692C44.2524 41.725 43.3106 42.2406 42.469 42.8962V13.9702C42.469 13.5193 42.2899 13.0869 41.9711 12.7681C41.6523 12.4493 41.2199 12.2702 40.7691 12.2702H35.378V9.57918H45.257V25.2792C45.257 25.5474 45.3636 25.8047 45.5533 25.9944C45.743 26.1841 46.0003 26.2907 46.2685 26.2907C46.5368 26.2907 46.7941 26.1841 46.9838 25.9944C47.1735 25.8047 47.28 25.5474 47.28 25.2792V9.22318C47.2795 8.78132 47.1037 8.35772 46.7911 8.04538C46.4786 7.73303 46.0549 7.55745 45.613 7.55718H35.139C34.9967 7.32621 34.7977 7.13549 34.5609 7.00316C34.3241 6.87084 34.0573 6.80131 33.786 6.80118H29.056V5.44718C29.056 4.18833 28.556 2.98104 27.6658 2.0909C26.7757 1.20076 25.5684 0.700684 24.3095 0.700684C23.0507 0.700684 21.8434 1.20076 20.9533 2.0909C20.0631 2.98104 19.563 4.18833 19.563 5.44718V6.80118H14.498C14.2265 6.80202 13.9597 6.87194 13.7226 7.00438C13.4856 7.13681 13.2861 7.32739 13.143 7.55818H2.66705C2.22501 7.55792 1.80095 7.73312 1.48801 8.04532C1.17507 8.35751 0.998842 8.78115 0.998047 9.22318V64.8092C0.998577 65.2511 1.17441 65.6746 1.48695 65.987C1.79948 66.2993 2.22319 66.4749 2.66505 66.4752H32.973C33.5298 67.3078 34.253 68.016 35.097 68.5552C35.8147 68.9882 36.6378 69.2152 37.476 69.2112C38.5467 69.1808 39.5952 68.8993 40.537 68.3892C41.319 67.9952 41.319 67.9952 42.1 68.3892C44.157 69.4272 45.989 69.4822 47.542 68.5552C48.9557 67.5458 50.08 66.1836 50.803 64.6042C52.668 61.1512 54.496 54.6282 51.887 50.8152V50.8152ZM42.138 46.1702C43.1936 44.6411 44.7644 43.5432 46.563 43.0772C46.7793 44.8475 46.3773 46.6382 45.425 48.1462C45.103 48.1632 44.769 48.1912 44.419 48.2342C43.4335 48.3411 42.4827 48.6601 41.632 49.1692C41.525 49.2292 41.397 49.3012 41.321 49.3352C41.245 49.3012 41.121 49.2292 41.01 49.1692L40.951 49.1362C41.1269 48.0731 41.532 47.0611 42.138 46.1702V46.1702ZM21.586 5.44718C21.5997 4.7339 21.8927 4.05445 22.4019 3.55485C22.9112 3.05525 23.5961 2.77537 24.3095 2.77537C25.023 2.77537 25.7079 3.05525 26.2172 3.55485C26.7264 4.05445 27.0194 4.7339 27.0331 5.44718V6.80118H21.586V5.44718ZM14.925 8.82218H33.355V13.0312H14.925V8.82218ZM3.02505 64.4532V9.57918H12.898V12.2742H7.51305C7.06218 12.2742 6.62978 12.4533 6.31097 12.7721C5.99215 13.0909 5.81305 13.5233 5.81305 13.9742V25.2792C5.81305 25.5474 5.91961 25.8047 6.10931 25.9944C6.299 26.1841 6.55628 26.2907 6.82455 26.2907C7.09281 26.2907 7.35009 26.1841 7.53979 25.9944C7.72948 25.8047 7.83604 25.5474 7.83604 25.2792V14.3012H13.142C13.2852 14.5321 13.4848 14.7228 13.722 14.8552C13.9593 14.9877 14.2263 15.0575 14.498 15.0582H33.787C34.0583 15.0578 34.3249 14.988 34.5615 14.8555C34.7981 14.723 34.997 14.5322 35.139 14.3012H40.445V45.0642C39.7658 46.0674 39.2867 47.1923 39.034 48.3772C38.765 48.3157 38.493 48.268 38.219 48.2342C33.879 47.6922 31.7651 49.3342 30.7551 50.8122C29.1221 53.1982 29.226 56.6452 29.989 59.7392H18.382V51.4332C18.382 50.9823 18.2029 50.5499 17.8841 50.2311C17.5653 49.9123 17.1329 49.7332 16.682 49.7332H7.83504V29.8802C7.83504 29.6119 7.72848 29.3546 7.53879 29.1649C7.34909 28.9753 7.09181 28.8687 6.82355 28.8687C6.55528 28.8687 6.298 28.9753 6.10831 29.1649C5.91861 29.3546 5.81205 29.6119 5.81205 29.8802V50.7442C5.81195 50.8815 5.83983 51.0174 5.89399 51.1436C5.94815 51.2698 6.02744 51.3836 6.12704 51.4782L16.674 61.4842C16.8629 61.6636 17.1136 61.7631 17.374 61.7622H30.598C30.9198 62.6858 31.3074 63.5851 31.758 64.4532H3.02505ZM16.361 51.7532V58.4012L9.36105 51.7592L16.361 51.7532ZM49.026 63.6412C47.107 67.1942 45.647 67.9082 43.014 66.5802C42.5146 66.2415 41.925 66.0605 41.3215 66.0605C40.7181 66.0605 40.1285 66.2415 39.629 66.5802C36.998 67.9082 35.537 67.1942 33.618 63.6412C33.0763 62.6255 32.6314 61.5612 32.289 60.4622L32.28 60.4332C31.299 57.2912 31.112 53.8752 32.427 51.9532C32.9103 51.3253 33.545 50.8304 34.2717 50.5147C34.9984 50.199 35.7933 50.0729 36.582 50.1482C37.7264 50.0985 38.8644 50.3422 39.888 50.8562C40.3636 51.1912 40.9334 51.3663 41.515 51.3562C42.031 51.2448 42.5215 51.0376 42.961 50.7452C43.497 50.4764 44.0762 50.3044 44.6721 50.2372C47.3471 49.9032 49.213 50.4802 50.22 51.9522C52.007 54.5742 51.016 59.9542 49.023 63.6432L49.026 63.6412Z" fill="white" stroke="white"/>
</svg>
