<svg width="17" height="11" viewBox="0 0 17 11" fill="none" xmlns="http://www.w3.org/2000/svg">
<path d="M0.947021 9.85114V0.957136C0.947021 0.947136 0.962355 0.849469 0.993021 0.664135L6.22802 5.14214L1.00902 10.1601C0.975986 10.06 0.955168 9.95626 0.947021 9.85114ZM1.64202 0.0511354C1.72537 0.0183131 1.81448 0.00266683 1.90402 0.00513541H16.004C16.0986 0.00533149 16.1925 0.0208667 16.282 0.0511354L11.032 4.54414L10.337 5.10014L8.96102 6.22314L7.58702 5.09514L6.89202 4.53914L1.64202 0.0511354ZM1.65702 10.7621L6.92302 5.71314L8.96102 7.36514L10.999 5.71314L16.264 10.7621C16.1802 10.7931 16.0914 10.8087 16.002 10.8081H1.90402C1.81959 10.8078 1.73591 10.7922 1.65702 10.7621ZM11.694 5.14214L16.913 0.664135C16.9441 0.75868 16.9596 0.857626 16.959 0.957136V9.85114C16.9574 9.95572 16.9419 10.0596 16.913 10.1601L11.694 5.14214Z" fill="white"/>
</svg>
