<svg width="19" height="12" viewBox="0 0 19 12" fill="none" xmlns="http://www.w3.org/2000/svg">
<path d="M11.049 4.86898C11.111 5.18048 11.1422 5.49736 11.1419 5.81498C11.1859 6.54761 11.0755 7.2813 10.818 7.96858C10.5604 8.65586 10.1615 9.28141 9.64689 9.80475C9.13232 10.3281 8.5136 10.7376 7.83077 11.0067C7.14794 11.2758 6.41622 11.3985 5.68295 11.367C4.18865 11.3472 2.76227 10.7396 1.71258 9.67593C0.662887 8.61223 0.0743408 7.17792 0.0743408 5.68348C0.0743408 4.18905 0.662887 2.75474 1.71258 1.69103C2.76227 0.627323 4.18865 0.0198045 5.68295 -1.71883e-05C7.09748 -0.0186416 8.46341 0.515604 9.48995 1.48898L7.94795 2.96998C7.33816 2.39112 6.52455 2.07631 5.68395 2.09398C4.74649 2.11611 3.85488 2.50406 3.19969 3.1749C2.54449 3.84575 2.17769 4.74627 2.17769 5.68398C2.17769 6.6217 2.54449 7.52222 3.19969 8.19306C3.85488 8.86391 4.74649 9.25185 5.68395 9.27398C6.4271 9.32511 7.16357 9.10499 7.75679 8.65447C8.35001 8.20395 8.75972 7.55358 8.90995 6.82398H5.68395V4.86898H11.0499H11.049ZM16.537 5.05998V3.40998H14.8799V5.05998H13.2299V6.71798H14.8799V8.36798H16.538V6.71798H18.188V5.05998H16.538H16.537Z" fill="white"/>
</svg>
