<svg width="86" height="100" viewBox="0 0 86 100" fill="none" xmlns="http://www.w3.org/2000/svg">
<path d="M74.823 11.584L69.312 9.92596C68.7516 7.37186 67.3359 5.08568 65.2992 3.44577C63.2625 1.80586 60.7269 0.91053 58.112 0.907959H28.644C26.0292 0.91053 23.4936 1.80586 21.4569 3.44577C19.4202 5.08568 18.0044 7.37186 17.444 9.92596L11.93 11.584C8.74991 12.3855 5.92871 14.2264 3.91442 16.8145C1.90012 19.4026 0.808192 22.5894 0.812022 25.869V87.679C0.811813 88.3695 0.957543 89.0522 1.23966 89.6824C1.52177 90.3127 1.9339 90.8762 2.44902 91.336V97.502C2.44902 97.9361 2.62149 98.3525 2.92849 98.6595C3.23549 98.9665 3.65186 99.139 4.08602 99.139H13.912C14.3462 99.139 14.7626 98.9665 15.0696 98.6595C15.3766 98.3525 15.549 97.9361 15.549 97.502V91.336C16.0504 90.8882 16.4543 90.342 16.7356 89.7315C17.0169 89.1209 17.1695 88.459 17.184 87.787C18.1557 88.4967 19.2765 88.9755 20.461 89.187V94.225C20.461 94.6591 20.6335 95.0755 20.9405 95.3825C21.2475 95.6895 21.6639 95.862 22.098 95.862H64.662C65.0962 95.862 65.5126 95.6895 65.8195 95.3825C66.1265 95.0755 66.299 94.6591 66.299 94.225V89.187C67.4836 88.9755 68.6043 88.4967 69.576 87.787C69.5905 88.459 69.7432 89.1209 70.0244 89.7315C70.3057 90.342 70.7096 90.8882 71.211 91.336V97.502C71.211 97.9361 71.3835 98.3525 71.6905 98.6595C71.9975 98.9665 72.4139 99.139 72.848 99.139H82.671C83.1052 99.139 83.5216 98.9665 83.8286 98.6595C84.1356 98.3525 84.308 97.9361 84.308 97.502V91.336C84.8231 90.8762 85.2353 90.3127 85.5174 89.6824C85.7995 89.0522 85.9452 88.3695 85.945 87.679V25.869C85.9486 22.5889 84.8561 19.4016 82.841 16.8135C80.826 14.2253 78.0039 12.3847 74.823 11.584ZM59.042 4.23496C60.8933 4.44875 62.6166 5.28679 63.9279 6.61101C65.2393 7.93523 66.0604 9.66663 66.256 11.52L48.156 23.587L59.042 4.23496ZM35.128 10.735H51.628L43.376 25.405L35.128 10.735ZM53.473 7.46096H33.285L31.443 4.18696H55.312L53.473 7.46096ZM27.712 4.23496L38.603 23.588L20.502 11.521C20.6973 9.66806 21.5177 7.93689 22.8283 6.61255C24.1388 5.2882 25.8613 4.44964 27.712 4.23496ZM12.272 95.865H5.72402V92.591H12.272V95.865ZM63.025 92.591H23.733V89.317H63.025V92.591ZM64.895 86.042H21.863C20.6225 86.0406 19.4331 85.5472 18.5559 84.6701C17.6787 83.7929 17.1853 82.6035 17.184 81.363V36.926C17.184 36.4918 17.0116 36.0754 16.7046 35.7684C16.3976 35.4614 15.9812 35.289 15.547 35.289C15.1129 35.289 14.6965 35.4614 14.3895 35.7684C14.0825 36.0754 13.91 36.4918 13.91 36.926V87.679C13.9095 88.113 13.7369 88.529 13.43 88.8359C13.1231 89.1428 12.707 89.3154 12.273 89.316H5.72402C5.29002 89.3154 4.87395 89.1428 4.56707 88.8359C4.26019 88.529 4.08755 88.113 4.08702 87.679V25.869C4.08422 23.3124 4.93755 20.8285 6.51092 18.8135C8.08429 16.7984 10.2871 15.3682 12.768 14.751L12.842 14.731L17.499 13.331C17.6126 13.4878 17.7531 13.6233 17.914 13.731L38.468 27.431V50.021C38.468 50.4551 38.6405 50.8715 38.9475 51.1785C39.2545 51.4855 39.6709 51.658 40.105 51.658C40.5392 51.658 40.9556 51.4855 41.2626 51.1785C41.5695 50.8715 41.742 50.4551 41.742 50.021V29.616L42.471 30.102C42.7399 30.2812 43.0559 30.3769 43.379 30.3769C43.7022 30.3769 44.0181 30.2812 44.287 30.102L45.016 29.616V50.024C45.016 50.4581 45.1885 50.8745 45.4955 51.1815C45.8025 51.4885 46.2189 51.661 46.653 51.661C47.0872 51.661 47.5036 51.4885 47.8106 51.1815C48.1176 50.8745 48.29 50.4581 48.29 50.024V27.434L68.844 13.734C69.005 13.6263 69.1455 13.4908 69.259 13.334L73.916 14.734L73.99 14.754C76.4709 15.3712 78.6738 16.8014 80.2471 18.8165C81.8205 20.8315 82.6738 23.3154 82.671 25.872V87.682C82.6705 88.116 82.4979 88.532 82.191 88.8389C81.8841 89.1458 81.468 89.3184 81.034 89.319H74.485C74.051 89.3184 73.635 89.1458 73.3281 88.8389C73.0212 88.532 72.8485 88.116 72.848 87.682V36.926C72.848 36.4918 72.6756 36.0754 72.3686 35.7684C72.0616 35.4614 71.6452 35.289 71.211 35.289C70.7769 35.289 70.3605 35.4614 70.0535 35.7684C69.7465 36.0754 69.574 36.4918 69.574 36.926V81.363C69.5727 82.6035 69.0793 83.7929 68.2021 84.6701C67.3249 85.5472 66.1356 86.0406 64.895 86.042ZM81.034 95.865H74.485V92.591H81.034V95.865Z" fill="white"/>
</svg>
