<svg width="14" height="14" viewBox="0 0 14 14" fill="none" xmlns="http://www.w3.org/2000/svg">
<path d="M6.51202 3.17077C5.85178 3.17058 5.20631 3.36618 4.65725 3.73284C4.10819 4.09951 3.68019 4.62076 3.42739 5.23068C3.1746 5.84061 3.10835 6.5118 3.23703 7.15937C3.36572 7.80695 3.68355 8.40181 4.15034 8.86874C4.61713 9.33567 5.2119 9.65368 5.85944 9.78256C6.50697 9.91144 7.17819 9.84539 7.78818 9.59278C8.39818 9.34016 8.91957 8.91232 9.28639 8.36337C9.65322 7.81442 9.84902 7.16901 9.84902 6.50877C9.84981 6.07028 9.76404 5.63595 9.59663 5.23067C9.42922 4.8254 9.18347 4.45715 8.87346 4.14704C8.56344 3.83694 8.19527 3.59107 7.79004 3.42354C7.38482 3.25601 6.95051 3.17011 6.51202 3.17077ZM6.51202 8.67877C6.08283 8.67877 5.66329 8.5515 5.30643 8.31306C4.94958 8.07462 4.67144 7.73571 4.5072 7.3392C4.34296 6.94268 4.29998 6.50637 4.38371 6.08543C4.46744 5.66449 4.67412 5.27783 4.9776 4.97435C5.28108 4.67087 5.66773 4.4642 6.08867 4.38047C6.50961 4.29674 6.94592 4.33971 7.34244 4.50395C7.73896 4.6682 8.07786 4.94633 8.31631 5.30319C8.55475 5.66004 8.68202 6.07959 8.68202 6.50877C8.68096 7.08397 8.452 7.6353 8.04527 8.04203C7.63855 8.44875 7.08721 8.67772 6.51202 8.67877ZM10.765 3.03477C10.765 3.18884 10.7193 3.33946 10.6337 3.46756C10.5481 3.59567 10.4265 3.69551 10.2841 3.75448C10.1418 3.81344 9.98515 3.82886 9.83404 3.7988C9.68293 3.76875 9.54413 3.69455 9.43518 3.58561C9.32624 3.47666 9.25204 3.33786 9.22199 3.18675C9.19193 3.03564 9.20735 2.87901 9.26632 2.73666C9.32528 2.59432 9.42512 2.47266 9.55323 2.38706C9.68133 2.30146 9.83195 2.25577 9.98602 2.25577C10.0884 2.25551 10.1898 2.27548 10.2844 2.31453C10.3791 2.35359 10.4651 2.41096 10.5374 2.48335C10.6098 2.55574 10.6672 2.64172 10.7063 2.73635C10.7453 2.83098 10.7653 2.9324 10.765 3.03477ZM12.976 3.82477C12.9974 2.81254 12.6195 1.83257 11.924 1.09677C11.1868 0.403613 10.2078 0.0260843 9.19602 0.0447734C8.12102 -0.0162266 4.89602 -0.0162266 3.82502 0.0447734C2.81356 0.0246349 1.8344 0.401155 1.09702 1.09377C0.402662 1.83027 0.0249377 2.80977 0.0450176 3.82177C-0.0159824 4.89677 -0.0159824 8.12177 0.0450176 9.19277C0.0236442 10.205 0.401551 11.185 1.09702 11.9208C1.83471 12.6131 2.81349 12.9902 3.82502 12.9718C4.90002 13.0328 8.12502 13.0328 9.19602 12.9718C10.2083 12.9931 11.1882 12.6152 11.924 11.9198C12.6172 11.1825 12.9947 10.2035 12.976 9.19177C13.037 8.11677 13.037 4.89877 12.976 3.82377V3.82477ZM11.587 10.3458C11.4764 10.6256 11.3095 10.8797 11.0968 11.0925C10.884 11.3053 10.6298 11.4721 10.35 11.5828C9.08853 11.8416 7.79794 11.9294 6.51302 11.8438C5.2281 11.928 3.93769 11.8402 2.67602 11.5828C2.3962 11.4721 2.14205 11.3053 1.92928 11.0925C1.71651 10.8797 1.54965 10.6256 1.43902 10.3458C1.17921 9.08442 1.09041 7.79383 1.17502 6.50877C1.09077 5.22386 1.17855 3.93345 1.43602 2.67177C1.54665 2.39167 1.71361 2.13727 1.92656 1.92432C2.13951 1.71137 2.39392 1.5444 2.67402 1.43377C3.93551 1.17497 5.2261 1.08718 6.51102 1.17277C7.79593 1.08853 9.08635 1.17631 10.348 1.43377C10.6278 1.54441 10.882 1.71127 11.0948 1.92403C11.3075 2.1368 11.4744 2.39095 11.585 2.67077C11.8438 3.93226 11.9316 5.22286 11.846 6.50777C11.9325 7.79293 11.8453 9.08388 11.587 10.3458Z" fill="white"/>
</svg>
