<svg width="18" height="17" viewBox="0 0 18 17" fill="none" xmlns="http://www.w3.org/2000/svg">
<path d="M12.655 10.3761C13.4822 9.01483 13.7823 7.39771 13.4984 5.83029C13.2146 4.26286 12.3665 2.85368 11.1144 1.86898C9.86226 0.884278 8.29287 0.392259 6.7027 0.485883C5.11253 0.579506 3.61172 1.25229 2.48382 2.37711C1.35591 3.50194 0.679035 5.00091 0.58107 6.59082C0.483104 8.18072 0.970834 9.75145 1.95211 11.0062C2.93339 12.261 4.34025 13.113 5.9069 13.4011C7.47354 13.6892 9.09147 13.3936 10.455 12.5701L14.877 16.9911L17.07 14.7971L12.655 10.3761ZM7.09899 11.0361C6.30391 11.0357 5.5268 10.7995 4.86593 10.3575C4.20507 9.91544 3.69013 9.28734 3.38623 8.55263C3.08233 7.81792 3.00312 7.0096 3.15862 6.22987C3.31412 5.45014 3.69735 4.73404 4.25983 4.17211C4.82232 3.61018 5.53881 3.22767 6.31869 3.07295C7.09857 2.91822 7.90682 2.99823 8.64122 3.30286C9.37563 3.60749 10.0032 4.12306 10.4446 4.78436C10.886 5.44567 11.1214 6.22301 11.121 7.01809C11.1186 8.08369 10.694 9.10491 9.9401 9.85803C9.18623 10.6112 8.16459 11.0348 7.09899 11.0361Z" fill="black"/>
</svg>
