<svg id="bx-message-square-detail" xmlns="http://www.w3.org/2000/svg" width="13.613" height="13.613" viewBox="0 0 13.613 13.613">
  <path id="Контур_162" data-name="Контур 162" d="M12.529,3H7.084A4.088,4.088,0,0,0,3,7.084v8.849a.681.681,0,0,0,.681.681h8.849a4.088,4.088,0,0,0,4.084-4.084V7.084A4.088,4.088,0,0,0,12.529,3Zm2.723,9.529a2.725,2.725,0,0,1-2.723,2.723H4.361V7.084A2.725,2.725,0,0,1,7.084,4.361h5.445a2.725,2.725,0,0,1,2.723,2.723Z" transform="translate(-3 -3)" fill="#e41c26"/>
  <path id="Контур_163" data-name="Контур 163" d="M10.5,13.5h6.807v1.361H10.5Zm0,2.723h4.765v1.361H10.5Z" transform="translate(-7.097 -8.735)" fill="#e41c26"/>
</svg>
