<svg width="63" height="42" viewBox="0 0 63 42" fill="none" xmlns="http://www.w3.org/2000/svg">
<path d="M5.08304 26.1659L14.001 29.5959L24.301 39.0409C25.7974 40.4151 27.7555 41.1767 29.787 41.1749H35.873C37.164 41.1718 38.4366 40.8697 39.5913 40.2923C40.7459 39.7149 41.7511 38.8779 42.528 37.8469L45.615 33.7309L48.871 38.3829V40.1349C48.871 40.2715 48.8979 40.4067 48.9502 40.5329C49.0025 40.6591 49.0791 40.7737 49.1756 40.8703C49.2722 40.9669 49.3869 41.0435 49.5131 41.0958C49.6392 41.148 49.7745 41.1749 49.911 41.1749H61.355C61.4916 41.1749 61.6269 41.148 61.753 41.0958C61.8792 41.0435 61.9939 40.9669 62.0904 40.8703C62.187 40.7737 62.2636 40.6591 62.3159 40.5329C62.3681 40.4067 62.395 40.2715 62.395 40.1349V38.0549C62.3945 37.8721 62.3458 37.6926 62.2538 37.5346C62.1618 37.3766 62.0298 37.2456 61.871 37.1549L57.116 34.4379L54.724 22.4799C54.4858 21.3022 53.848 20.243 52.9187 19.4813C51.9894 18.7197 50.8256 18.3023 49.624 18.2999H42.724C41.5694 18.2967 40.4255 18.5225 39.3587 18.9643C38.2919 19.4062 37.3233 20.0552 36.509 20.8739L33.871 23.5119L31.201 19.0489V7.10393C31.1997 6.09734 30.9652 5.10474 30.516 4.20393C29.9807 3.12418 29.1536 2.21601 28.1285 1.58237C27.1034 0.948731 25.9212 0.614969 24.716 0.618931C23.3982 0.618776 22.0873 0.81114 20.825 1.18993L12.184 3.78193C11.9524 3.85153 11.7522 3.9997 11.618 4.20093L9.73604 7.02393L6.95504 7.95093C6.77611 8.01055 6.61676 8.11771 6.49404 8.26093L1.91304 13.6059C1.08696 14.5699 0.504396 15.7181 0.214355 16.954C-0.0756867 18.1899 -0.0647299 19.4774 0.246301 20.7082C0.557332 21.939 1.15934 23.0771 2.00171 24.0268C2.84409 24.9766 3.90219 25.7102 5.08704 26.1659H5.08304ZM25.711 37.5079L24.201 36.1239L35.358 24.9669L39.935 29.5439L34.574 36.7439C34.0633 37.4061 33.4206 37.955 32.6866 38.3559C31.9526 38.7567 31.1434 39.0007 30.3102 39.0724C29.4769 39.1441 28.6379 39.042 27.8462 38.7725C27.0546 38.5031 26.3275 38.0721 25.711 37.5069V37.5079ZM40.869 36.5999C40.2867 37.374 39.5328 38.0026 38.6667 38.4363C37.8006 38.8701 36.8457 39.0972 35.877 39.0999H35.211C35.5824 38.7692 35.9222 38.4047 36.226 38.0109L36.236 37.9979L42.61 29.4369L44.364 31.9429L40.869 36.5999ZM60.315 39.0999H50.956V38.4909L54.249 35.1979L60.315 38.6639V39.0999ZM49.625 20.3819C50.3458 20.3835 51.0439 20.634 51.6013 21.091C52.1587 21.548 52.5412 22.1834 52.684 22.8899L54.606 32.5009L50.806 23.6289C50.2692 22.3748 49.4474 21.2631 48.406 20.3819H49.625ZM42.725 20.3819C44.0383 20.3807 45.3231 20.7654 46.4195 21.4883C47.5159 22.2112 48.3757 23.2404 48.892 24.4479L52.841 33.6629L50.056 36.4479L43.487 27.0639C43.3926 26.9291 43.2676 26.8185 43.1221 26.7414C42.9767 26.6643 42.815 26.6229 42.6504 26.6204C42.4858 26.618 42.323 26.6546 42.1753 26.7274C42.0277 26.8001 41.8994 26.9069 41.801 27.0389L41.188 27.8619L36.826 23.4999L37.981 22.3449C38.6026 21.72 39.3419 21.2245 40.1562 20.8872C40.9705 20.5499 41.8436 20.3775 42.725 20.3799V20.3819ZM32.356 25.0299L22.666 34.7189L15.266 27.9309C15.1698 27.8444 15.0582 27.7765 14.937 27.7309L10.601 26.0599L12.164 20.5899L15.164 21.3389C15.9667 21.9515 16.9237 22.3291 17.9284 22.4295C18.9331 22.53 19.946 22.3493 20.854 21.9077C21.762 21.4662 22.5295 20.781 23.0709 19.9288C23.6123 19.0765 23.9063 18.0905 23.92 17.0809L24.256 14.1379H29.121V19.3379C29.121 19.5264 29.1722 19.7113 29.269 19.8729L32.356 25.0299ZM22.275 13.1099L19.452 10.2869L18.727 9.56193L18.693 9.52894L22.736 9.07993L22.275 13.1099ZM17.248 11.0189L14.864 13.4029C14.6708 13.5986 14.5629 13.8629 14.564 14.1379V15.7869L13.524 16.8269L12.573 15.8759L13.303 12.2279C13.386 11.8126 13.5798 11.4274 13.864 11.1133C14.1481 10.7992 14.512 10.5679 14.917 10.444C15.322 10.32 15.7531 10.308 16.1644 10.4092C16.5756 10.5104 16.9518 10.7211 17.253 11.0189H17.248ZM14.99 18.2979L16.335 16.9529C16.5283 16.7572 16.6362 16.493 16.635 16.2179V14.5689L18.715 12.4889L20.851 14.6189C21.4835 15.2513 21.8387 16.1091 21.8387 17.0034C21.8387 17.8978 21.4835 18.7555 20.851 19.3879C20.2186 20.0203 19.3609 20.3756 18.4665 20.3756C17.5722 20.3756 16.7145 20.0203 16.082 19.3879L14.99 18.2979ZM10.701 16.9529L12.201 18.4529L8.88604 17.6239L10.701 14.6189L10.423 16.0109C10.3882 16.1787 10.3953 16.3525 10.4438 16.5168C10.4923 16.6812 10.5807 16.831 10.701 16.9529ZM13.134 5.66693L21.417 3.18193C22.485 2.86153 23.594 2.69882 24.709 2.69893C25.5277 2.69615 26.3307 2.9228 27.0271 3.35318C27.7235 3.78357 28.2854 4.40047 28.649 5.13393C28.9541 5.74589 29.1132 6.42017 29.114 7.10393V12.0579H24.49L24.952 8.01593C24.9698 7.86069 24.9524 7.70343 24.9011 7.55585C24.8497 7.40827 24.7658 7.27416 24.6555 7.16347C24.5452 7.05279 24.4113 6.96838 24.2639 6.91652C24.1165 6.86467 23.9593 6.84669 23.804 6.86393L14.445 7.90393C14.2103 7.93061 13.9916 8.03641 13.825 8.20393L12.642 9.38693L11.65 7.89993L13.134 5.66693ZM3.48504 14.9599L7.87904 9.83393L9.97204 9.13393L11.138 10.8839L9.66104 12.3609C9.60105 12.421 9.54865 12.4881 9.50504 12.5609L6.38504 17.7609C6.30145 17.9002 6.25165 18.0572 6.23963 18.2192C6.22761 18.3811 6.2537 18.5437 6.31582 18.6938C6.37794 18.8439 6.47436 18.9774 6.59734 19.0835C6.72033 19.1896 6.86647 19.2655 7.02404 19.3049L10.141 20.0839L8.64804 25.3089L5.82604 24.2239C4.95207 23.8877 4.1716 23.3465 3.55026 22.6459C2.92893 21.9453 2.4849 21.1057 2.2555 20.1978C2.0261 19.29 2.01804 18.3403 2.232 17.4286C2.44596 16.5169 2.87569 15.67 3.48504 14.9589V14.9599Z" fill="#E41C26"/>
</svg>
