<svg width="92" height="100" viewBox="0 0 92 100" fill="none" xmlns="http://www.w3.org/2000/svg">
<path d="M91.282 40.364L77.982 13.538C77.7016 12.9723 77.2722 12.4938 76.74 12.154L60.788 1.97102C59.861 1.37956 58.7866 1.06011 57.687 1.04897C56.5874 1.03783 55.5068 1.33546 54.568 1.90802C49.493 5.04802 44.056 4.95302 37.948 1.61802C37.0317 1.12075 35.9992 0.877108 34.9573 0.912267C33.9154 0.947427 32.9017 1.26011 32.021 1.81802L29.268 3.55402L29.258 3.56002L15.647 12.15C15.1079 12.4904 14.673 12.9727 14.39 13.544L1.09599 40.364C0.823397 40.9151 0.771363 41.5495 0.950506 42.1376C1.12965 42.7258 1.52647 43.2234 2.05999 43.529L16.571 51.821V97.172C16.5718 97.7895 16.8174 98.3814 17.254 98.818C17.6906 99.2546 18.2825 99.5002 18.9 99.501H73.476C74.0934 99.5002 74.6854 99.2546 75.122 98.818C75.5586 98.3814 75.8042 97.7895 75.805 97.172V81.625C75.805 81.2387 75.6515 80.8683 75.3784 80.5951C75.1052 80.322 74.7348 80.1685 74.3485 80.1685C73.9622 80.1685 73.5917 80.322 73.3186 80.5951C73.0454 80.8683 72.892 81.2387 72.892 81.625V96.588H19.482V33.674C19.482 33.2877 19.3285 32.9173 19.0554 32.6441C18.7822 32.371 18.4118 32.2175 18.0255 32.2175C17.6392 32.2175 17.2687 32.371 16.9956 32.6441C16.7224 32.9173 16.569 33.2877 16.569 33.674V48.466L3.91499 41.235L17 14.835C17.0448 14.7434 17.114 14.6659 17.2 14.611L29.033 7.14602C29.7048 9.57077 30.8834 11.8254 32.491 13.761C32.7376 14.0582 33.0922 14.2452 33.4768 14.2809C33.8613 14.3167 34.2443 14.1982 34.5415 13.9515C34.8387 13.7049 35.0257 13.3503 35.0614 12.9657C35.0971 12.5812 34.9786 12.1982 34.732 11.901C33.1968 10.0521 32.133 7.85838 31.632 5.50802L33.578 4.28002C33.639 4.24202 33.701 4.20602 33.763 4.17302C34.1442 6.91326 35.4257 9.44895 37.406 11.381C39.7437 13.6708 42.883 14.9573 46.1553 14.9666C49.4276 14.976 52.5742 13.7074 54.925 11.431C56.9438 9.48275 58.2473 6.91107 58.625 4.13102C58.8353 4.20515 59.0366 4.30277 59.225 4.42202L60.77 5.40802C60.0683 8.75989 58.2373 11.7693 55.5832 13.9333C52.929 16.0973 49.6125 17.2847 46.188 17.297C43.5998 17.296 41.0567 16.6187 38.811 15.332C38.6451 15.2369 38.4622 15.1753 38.2725 15.1509C38.0829 15.1265 37.8903 15.1396 37.7057 15.1896C37.5212 15.2396 37.3483 15.3255 37.1969 15.4423C37.0455 15.5592 36.9186 15.7047 36.8235 15.8705C36.7283 16.0364 36.6668 16.2194 36.6424 16.409C36.6179 16.5986 36.6311 16.7912 36.6811 16.9758C36.7311 17.1604 36.817 17.3332 36.9338 17.4846C37.0506 17.636 37.1961 17.7629 37.362 17.858C40.049 19.397 43.0915 20.2071 46.188 20.208C50.0922 20.1923 53.8841 18.8996 56.985 16.5273C60.0859 14.1549 62.3255 10.8332 63.362 7.06902L75.174 14.608C75.2597 14.6628 75.3288 14.7399 75.374 14.831L88.461 41.231L75.805 48.466V33.673C75.805 33.2867 75.6515 32.9163 75.3784 32.6431C75.1052 32.37 74.7348 32.2165 74.3485 32.2165C73.9622 32.2165 73.5917 32.37 73.3186 32.6431C73.0454 32.9163 72.892 33.2867 72.892 33.673V75.8C72.892 76.1863 73.0454 76.5568 73.3186 76.8299C73.5917 77.1031 73.9622 77.2565 74.3485 77.2565C74.7348 77.2565 75.1052 77.1031 75.3784 76.8299C75.6515 76.5568 75.805 76.1863 75.805 75.8V51.821L90.316 43.529C90.8495 43.2234 91.2463 42.7258 91.4255 42.1376C91.6046 41.5495 91.5526 40.9151 91.28 40.364H91.282ZM46.188 12.054C43.6642 12.0598 41.2399 11.0702 39.441 9.30002C38.0446 7.93758 37.0973 6.1813 36.726 4.26602C43.459 7.88602 49.79 8.03502 55.557 4.70902C55.0497 6.8091 53.8489 8.67669 52.1488 10.0098C50.4486 11.3428 48.3484 12.0634 46.188 12.055V12.054Z" fill="white"/>
</svg>
