<svg width="57" height="100" viewBox="0 0 57 100" fill="none" xmlns="http://www.w3.org/2000/svg">
<path d="M53.509 19.451L49.739 11.637V2.84296C49.739 2.32977 49.5351 1.83759 49.1722 1.47471C48.8094 1.11182 48.3172 0.907959 47.804 0.907959L9.10399 0.907959C8.59079 0.907959 8.09862 1.11182 7.73574 1.47471C7.37286 1.83759 7.16899 2.32977 7.16899 2.84296V11.688L3.42399 19.451C0.662197 25.1535 -0.274335 31.5689 0.741988 37.823L10.484 98.347C10.5572 98.8008 10.7896 99.2139 11.1396 99.512C11.4895 99.8101 11.9342 99.9739 12.394 99.974H24.584C25.0972 99.974 25.5894 99.7701 25.9522 99.4072C26.3151 99.0443 26.519 98.5521 26.519 98.039V43.526L28.466 39.437L30.413 43.526V98.039C30.413 98.5521 30.6169 99.0443 30.9797 99.4072C31.3426 99.7701 31.8348 99.974 32.348 99.974H44.538C44.9977 99.9739 45.4424 99.8101 45.7924 99.512C46.1424 99.2139 46.3748 98.8008 46.448 98.347L56.19 37.823C57.2067 31.569 56.2705 25.1536 53.509 19.451ZM35.228 4.77796H45.87V10.195H35.228V4.77796ZM25.554 4.77796H31.354V10.195H25.554V4.77796ZM11.042 4.77796H21.684V10.195H11.042V4.77796ZM52.691 34.086L47.652 30.686L42.652 18.646C42.4522 18.1765 42.075 17.8049 41.6026 17.6122C41.1302 17.4194 40.6007 17.421 40.1295 17.6167C39.6583 17.8123 39.2834 18.1862 39.0865 18.6569C38.8896 19.1276 38.8865 19.657 39.078 20.13L44.301 32.708C44.4453 33.0571 44.6886 33.3565 45.001 33.569L52.174 38.411L42.888 96.111H34.284V43.088C34.284 42.8001 34.2197 42.5159 34.096 42.256L30.39 34.473V26.835C30.39 26.3218 30.1861 25.8296 29.8232 25.4667C29.4604 25.1038 28.9682 24.9 28.455 24.9C27.9418 24.9 27.4496 25.1038 27.0867 25.4667C26.7239 25.8296 26.52 26.3218 26.52 26.835V34.524L22.838 42.256C22.7143 42.5159 22.65 42.8001 22.65 43.088V96.108H14.044L4.75799 38.408L11.931 33.566C12.2433 33.3534 12.4867 33.0541 12.631 32.705L17.855 20.128C17.9551 19.8928 18.0076 19.6402 18.0095 19.3847C18.0114 19.1291 17.9627 18.8757 17.8661 18.6391C17.7696 18.4025 17.6271 18.1874 17.447 18.0061C17.2668 17.8249 17.0526 17.6811 16.8166 17.5831C16.5806 17.4851 16.3275 17.4348 16.0719 17.4352C15.8164 17.4355 15.5634 17.4865 15.3277 17.5851C15.092 17.6837 14.8781 17.8281 14.6984 18.0098C14.5188 18.1916 14.3769 18.4071 14.281 18.644L9.28099 30.684L4.24199 34.084C4.041 29.6118 4.95761 25.16 6.90899 21.131L10.319 14.063H46.614L50.024 21.131C51.9756 25.1606 52.8922 29.6131 52.691 34.086Z" fill="white"/>
<path d="M29.824 18.375C29.5075 18.0588 29.0912 17.862 28.6459 17.8183C28.2006 17.7746 27.754 17.8867 27.382 18.1354C27.0101 18.384 26.7359 18.754 26.6061 19.1822C26.4764 19.6103 26.4991 20.0703 26.6704 20.4836C26.8417 20.8969 27.151 21.238 27.5456 21.4489C27.9403 21.6597 28.3958 21.7272 28.8346 21.6399C29.2734 21.5525 29.6683 21.3157 29.9521 20.9699C30.2359 20.624 30.391 20.1904 30.391 19.743C30.3893 19.2302 30.1855 18.7387 29.824 18.375Z" fill="white"/>
</svg>
