<svg width="79" height="70" viewBox="0 0 79 70" fill="none" xmlns="http://www.w3.org/2000/svg">
<path d="M71.058 22.719L73.065 20.712C73.2388 20.5382 73.3767 20.3319 73.4707 20.1048C73.5648 19.8777 73.6132 19.6343 73.6132 19.3885C73.6132 19.1428 73.5648 18.8994 73.4707 18.6723C73.3767 18.4452 73.2388 18.2389 73.065 18.065C72.8912 17.8912 72.6849 17.7534 72.4578 17.6593C72.2307 17.5653 71.9873 17.5168 71.7415 17.5168C71.4957 17.5168 71.2523 17.5653 71.0252 17.6593C70.7981 17.7534 70.5918 17.8912 70.418 18.065L68.329 20.15C64.8031 17.2465 60.62 15.2501 56.145 14.335V10.031H58.017C58.2628 10.031 58.5063 9.98263 58.7334 9.88855C58.9605 9.79447 59.1669 9.65658 59.3407 9.48275C59.5145 9.30892 59.6524 9.10255 59.7465 8.87543C59.8406 8.64831 59.889 8.40488 59.889 8.15905V1.92205C59.8891 1.67618 59.8408 1.43269 59.7468 1.20551C59.6527 0.97833 59.5149 0.771909 59.341 0.598052C59.1671 0.424194 58.9607 0.286309 58.7335 0.192279C58.5064 0.0982489 58.2629 0.0499176 58.017 0.0500491H43.045C42.5485 0.0500491 42.0724 0.247277 41.7213 0.598345C41.3702 0.949413 41.173 1.42556 41.173 1.92205V8.16005C41.173 8.65653 41.3702 9.13268 41.7213 9.48375C42.0724 9.83482 42.5485 10.032 43.045 10.032H44.917V14.339C40.442 15.2527 36.2586 17.2478 32.732 20.15L30.643 18.061C30.4692 17.8872 30.2629 17.7494 30.0358 17.6553C29.8087 17.5613 29.5653 17.5128 29.3195 17.5128C29.0737 17.5128 28.8303 17.5613 28.6032 17.6553C28.3761 17.7494 28.1698 17.8872 27.996 18.061C27.8222 18.2349 27.6843 18.4412 27.5903 18.6683C27.4962 18.8954 27.4478 19.1388 27.4478 19.3845C27.4478 19.6303 27.4962 19.8737 27.5903 20.1008C27.6843 20.3279 27.8222 20.5342 27.996 20.708L30.003 22.715C26.272 26.7143 23.7904 31.7163 22.8633 37.1066C21.9361 42.4969 22.6037 48.0406 24.7841 53.0566C26.9645 58.0726 30.5626 62.3425 35.1365 65.3416C39.7103 68.3407 45.0606 69.9384 50.53 69.9384C55.9994 69.9384 61.3497 68.3407 65.9235 65.3416C70.4974 62.3425 74.0955 58.0726 76.2759 53.0566C78.4562 48.0406 79.1239 42.4969 78.1967 37.1066C77.2696 31.7163 74.788 26.7143 71.057 22.715L71.058 22.719ZM44.916 3.79305H56.145V6.29305H44.916V3.79305ZM48.659 10.031H52.402V13.838C51.783 13.797 51.159 13.774 50.53 13.774C49.901 13.774 49.277 13.797 48.658 13.838L48.659 10.031ZM50.531 66.176C45.7187 66.1766 41.0143 64.7501 37.0127 62.0769C33.0112 59.4037 29.8923 55.6038 28.0505 51.1579C26.2087 46.712 25.7267 41.8197 26.6654 37.0999C27.6042 32.38 29.9215 28.0445 33.3244 24.6418C36.7273 21.239 41.0629 18.9218 45.7828 17.9833C50.5027 17.0447 55.3949 17.5269 59.8408 19.3689C64.2866 21.2109 68.0863 24.33 70.7594 28.3316C73.4325 32.3333 74.8588 37.0377 74.858 41.85C74.8501 48.2995 72.2845 54.4826 67.724 59.0431C63.1635 63.6035 56.9805 66.1691 50.531 66.177V66.176Z" fill="white"/>
<path d="M50.531 21.26C46.4593 21.26 42.479 22.4674 39.0935 24.7295C35.7079 26.9917 33.0693 30.2069 31.5111 33.9687C29.9529 37.7305 29.5452 41.8698 30.3396 45.8633C31.1339 49.8568 33.0946 53.5251 35.9738 56.4042C38.8529 59.2834 42.5212 61.2441 46.5147 62.0384C50.5081 62.8328 54.6475 62.4251 58.4093 60.8669C62.1711 59.3087 65.3863 56.67 67.6484 53.2845C69.9106 49.899 71.118 45.9187 71.118 41.847C71.1119 36.3889 68.941 31.156 65.0815 27.2965C61.222 23.437 55.9891 21.2661 50.531 21.26ZM67.27 39.975H52.402V25.108C56.1969 25.5379 59.7337 27.2424 62.4344 29.9429C65.1351 32.6434 66.8398 36.1801 67.27 39.975ZM50.531 58.69C46.227 58.6885 42.0868 57.0395 38.9604 54.0815C35.8339 51.1234 33.9584 47.0808 33.7189 42.7835C33.4794 38.4861 34.8939 34.2601 37.6722 30.9729C40.4505 27.6858 44.3818 25.5868 48.659 25.107V41.846C48.659 42.3425 48.8562 42.8186 49.2073 43.1697C49.5583 43.5208 50.0345 43.718 50.531 43.718H67.27C66.8047 47.8334 64.8415 51.6338 61.7545 54.3949C58.6675 57.156 54.6726 58.6848 50.531 58.69Z" fill="white"/>
<path d="M20.586 28.7471H8.10999C7.62113 28.7584 7.15609 28.9605 6.81434 29.3103C6.47259 29.66 6.28125 30.1296 6.28125 30.6186C6.28125 31.1076 6.47259 31.5772 6.81434 31.9269C7.15609 32.2766 7.62113 32.4788 8.10999 32.4901H20.586C20.8354 32.4958 21.0834 32.4517 21.3155 32.3602C21.5477 32.2688 21.7591 32.1319 21.9376 31.9575C22.116 31.7831 22.2578 31.5749 22.3546 31.345C22.4514 31.115 22.5013 30.8681 22.5013 30.6186C22.5013 30.3691 22.4514 30.1222 22.3546 29.8922C22.2578 29.6623 22.116 29.454 21.9376 29.2797C21.7591 29.1053 21.5477 28.9684 21.3155 28.8769C21.0834 28.7855 20.8354 28.7413 20.586 28.7471Z" fill="white"/>
<path d="M19.963 45.59C19.9627 45.0937 19.7654 44.6178 19.4143 44.2669C19.0633 43.9161 18.5873 43.719 18.091 43.719H5.61499C5.36558 43.7132 5.11753 43.7574 4.88543 43.8489C4.65332 43.9403 4.44184 44.0772 4.2634 44.2516C4.08497 44.426 3.94319 44.6342 3.84639 44.8641C3.74959 45.0941 3.69972 45.341 3.69972 45.5905C3.69972 45.84 3.74959 46.0869 3.84639 46.3169C3.94319 46.5468 4.08497 46.7551 4.2634 46.9294C4.44184 47.1038 4.65332 47.2407 4.88543 47.3322C5.11753 47.4236 5.36558 47.4678 5.61499 47.462H18.091C18.5875 47.462 19.0636 47.2648 19.4147 46.9137C19.7658 46.5626 19.963 46.0865 19.963 45.59Z" fill="white"/>
<path d="M19.339 51.2051H10.606C10.1171 51.2164 9.65209 51.4185 9.31034 51.7683C8.96859 52.118 8.77725 52.5876 8.77725 53.0766C8.77725 53.5656 8.96859 54.0352 9.31034 54.3849C9.65209 54.7346 10.1171 54.9368 10.606 54.9481H19.34C19.5894 54.9539 19.8374 54.9097 20.0696 54.8182C20.3017 54.7268 20.5131 54.5899 20.6916 54.4155C20.87 54.2412 21.0118 54.0329 21.1086 53.803C21.2054 53.573 21.2553 53.3261 21.2553 53.0766C21.2553 52.8271 21.2054 52.5802 21.1086 52.3502C21.0118 52.1203 20.87 51.912 20.6916 51.7377C20.5131 51.5633 20.3017 51.4264 20.0696 51.3349C19.8374 51.2435 19.5894 51.1993 19.34 51.2051H19.339Z" fill="white"/>
<path d="M19.963 38.1051C19.963 37.6087 19.7658 37.1325 19.4147 36.7814C19.0636 36.4304 18.5875 36.2332 18.091 36.2332H1.87199C1.37564 36.2332 0.899612 36.4303 0.548638 36.7813C0.197664 37.1323 0.000488281 37.6083 0.000488281 38.1047C0.000488281 38.601 0.197664 39.077 0.548638 39.428C0.899612 39.779 1.37564 39.9762 1.87199 39.9762H18.092C18.5882 39.9762 19.0641 39.779 19.415 39.4281C19.7659 39.0773 19.963 38.6014 19.963 38.1051Z" fill="white"/>
</svg>
