<svg opacity="0.1" xmlns="http://www.w3.org/2000/svg" width="166.195" height="147.729" viewBox="0 0 166.195 147.729">
  <g id="linear_color" data-name="linear color" transform="translate(0 0)">
    <path id="Контур_74" data-name="Контур 74" d="M250.757,51.93,255,47.687a3.957,3.957,0,1,0-5.6-5.6l-4.416,4.416a59.172,59.172,0,0,0-25.761-12.3V25.1h3.957a3.957,3.957,0,0,0,3.957-3.957V7.957A3.957,3.957,0,0,0,223.183,4H191.527a3.957,3.957,0,0,0-3.957,3.957v13.19a3.957,3.957,0,0,0,3.957,3.957h3.957v9.107a59.173,59.173,0,0,0-25.761,12.3l-4.416-4.416a3.957,3.957,0,1,0-5.6,5.6l4.243,4.243a59.355,59.355,0,1,0,86.8,0ZM195.484,11.914h23.742V17.19H195.484ZM203.4,25.1h7.914v8.049c-1.308-.087-2.627-.135-3.957-.135s-2.649.048-3.957.135Zm3.957,118.711A51.441,51.441,0,1,1,258.8,92.373,51.5,51.5,0,0,1,207.355,143.815Z" transform="translate(-100.516 -4)" fill="#fff"/>
    <path id="Контур_75" data-name="Контур 75" d="M239.527,140a43.527,43.527,0,1,0,43.527,43.527A43.577,43.577,0,0,0,239.527,140Zm35.392,39.57H243.484V148.135A35.679,35.679,0,0,1,274.919,179.57Zm-35.392,39.57a35.613,35.613,0,0,1-3.957-71.005v35.392a3.957,3.957,0,0,0,3.957,3.957h35.392A35.663,35.663,0,0,1,239.527,219.14Z" transform="translate(-132.688 -95.154)" fill="#fff"/>
    <path id="Контур_76" data-name="Контур 76" d="M74.337,188H47.957a3.957,3.957,0,0,0,0,7.914h26.38a3.957,3.957,0,1,0,0-7.914Z" transform="translate(-30.81 -127.326)" fill="#fff"/>
    <path id="Контур_77" data-name="Контур 77" d="M62.294,287.957A3.957,3.957,0,0,0,58.337,284H31.957a3.957,3.957,0,1,0,0,7.914h26.38A3.957,3.957,0,0,0,62.294,287.957Z" transform="translate(-20.086 -191.669)" fill="#fff"/>
    <path id="Контур_78" data-name="Контур 78" d="M82.423,332H63.957a3.957,3.957,0,0,0,0,7.914H82.423a3.957,3.957,0,1,0,0-7.914Z" transform="translate(-41.534 -223.841)" fill="#fff"/>
    <path id="Контур_79" data-name="Контур 79" d="M46.208,239.957A3.957,3.957,0,0,0,42.251,236H7.957a3.957,3.957,0,1,0,0,7.914H42.251A3.957,3.957,0,0,0,46.208,239.957Z" transform="translate(-4 -159.498)" fill="#fff"/>
  </g>
</svg>
