<svg width="69" height="69" viewBox="0 0 69 69" fill="none" xmlns="http://www.w3.org/2000/svg">
<path d="M63.558 51.7219H59.569C58.7217 51.7211 57.8914 51.96 57.174 52.4109C57.5513 50.6238 57.5251 48.7751 57.0973 46.9994C56.6696 45.2237 55.851 43.5659 54.7014 42.1466C53.5517 40.7273 52.0999 39.5825 50.4517 38.7954C48.8035 38.0083 47.0005 37.5989 45.174 37.5969H36.858C36.2385 37.5964 35.6446 37.3501 35.2064 36.9122C34.7683 36.4742 34.5218 35.8804 34.521 35.2609V33.0709C36.389 32.0353 37.9459 30.519 39.0306 28.6791C40.1153 26.8392 40.6882 24.7427 40.69 22.6069V10.0679C41.2286 9.6454 41.6641 9.10601 41.9636 8.49049C42.2632 7.87498 42.4189 7.19943 42.419 6.51491V1.45891C42.419 1.10634 42.279 0.768202 42.0298 0.518808C41.7806 0.269413 41.4426 0.129171 41.09 0.128906L25.041 0.128906C22.8435 0.131817 20.7369 1.00605 19.183 2.55991C17.6292 4.11377 16.7549 6.22042 16.752 8.41791V22.6069C16.7535 24.7424 17.326 26.8387 18.4101 28.6785C19.4943 30.5184 21.0506 32.0349 22.918 33.0709V35.2609C22.9172 35.8804 22.6707 36.4742 22.2326 36.9122C21.7945 37.3501 21.2005 37.5964 20.581 37.5969H12.268C10.0727 37.5966 7.91747 38.1854 6.02727 39.3019C4.13706 40.4184 2.58113 42.0218 1.52179 43.9446C0.462456 45.8674 -0.0614547 48.0393 0.00472121 50.2337C0.0708971 52.428 0.724734 54.5644 1.89802 56.4199C1.21774 58.2194 0.938239 60.1457 1.079 62.0644C1.21976 63.9831 1.7774 65.8479 2.71302 67.5289C2.88541 67.8368 3.17306 68.0636 3.51268 68.1595C3.85231 68.2553 4.2161 68.2123 4.52401 68.0399C4.83193 67.8675 5.05875 67.5799 5.15459 67.2402C5.25042 66.9006 5.20741 66.5368 5.03502 66.2289C4.23902 64.7977 3.78671 63.201 3.71382 61.5649C3.64093 59.9289 3.94945 58.2982 4.61502 56.8019C4.70994 56.589 4.74725 56.3549 4.7232 56.1231C4.69916 55.8912 4.6146 55.6698 4.47801 55.4809C3.44235 54.0464 2.82297 52.3538 2.6882 50.5897C2.55342 48.8255 2.90847 47.0585 3.7142 45.4833C4.51993 43.9082 5.74503 42.5861 7.25439 41.663C8.76376 40.7399 10.4987 40.2516 12.268 40.2519H13.56V47.5629C13.5563 50.1325 12.9861 52.6698 11.89 54.9939C11.8059 55.1715 11.7622 55.3654 11.762 55.5619V66.8779C11.7715 67.2242 11.9158 67.5531 12.164 67.7947C12.4123 68.0363 12.7451 68.1714 13.0915 68.1714C13.4379 68.1714 13.7707 68.0363 14.019 67.7947C14.2673 67.5531 14.4115 67.2242 14.421 66.8779V55.8549C15.6017 53.2514 16.2152 50.4266 16.221 47.5679V40.2569H18.88V43.6659C18.88 46.2759 19.9168 48.779 21.7624 50.6245C23.6079 52.4701 26.111 53.5069 28.721 53.5069C31.331 53.5069 33.8341 52.4701 35.6797 50.6245C37.5252 48.779 38.562 46.2759 38.562 43.6659V40.2569H41.22V47.5679C41.2199 48.964 41.3661 50.3563 41.656 51.7219H37.729C36.5304 51.7232 35.3812 52.2 34.5336 53.0475C33.6861 53.8951 33.2093 55.0443 33.208 56.2429V63.6889C33.2093 64.8875 33.6861 66.0367 34.5336 66.8843C35.3812 67.7318 36.5304 68.2086 37.729 68.2099H41.662C42.7455 68.2085 43.7925 67.8187 44.613 67.1111C45.4336 66.4036 45.9732 65.4254 46.134 64.3539H53.222C53.0116 65.0051 52.738 65.6341 52.405 66.2319C52.3197 66.3844 52.2652 66.5522 52.2446 66.7257C52.2241 66.8992 52.238 67.0751 52.2854 67.2432C52.3329 67.4114 52.413 67.5686 52.5212 67.7058C52.6294 67.843 52.7635 67.9576 52.916 68.0429C53.0685 68.1283 53.2363 68.1828 53.4098 68.2033C53.5833 68.2238 53.7592 68.2099 53.9273 68.1625C54.0955 68.115 54.2527 68.0349 54.3899 67.9267C54.5271 67.8185 54.6417 67.6844 54.727 67.5319C55.0447 66.9611 55.3195 66.3675 55.549 65.7559C55.9288 66.4955 56.5049 67.1161 57.2143 67.5497C57.9236 67.9833 58.7387 68.2131 59.57 68.2139H63.559C64.7577 68.2126 65.9068 67.7358 66.7544 66.8883C67.6019 66.0407 68.0787 64.8915 68.08 63.6929V56.2429C68.0787 55.0443 67.6019 53.8951 66.7544 53.0475C65.9068 52.2 64.7577 51.7232 63.559 51.7219H63.558ZM25.041 2.78791H39.756V6.51391C39.7555 7.00855 39.5587 7.48276 39.2088 7.83243C38.859 8.1821 38.3847 8.37864 37.89 8.37891H34.703C34.5254 8.37403 34.3485 8.40482 34.183 8.46944C34.0174 8.53406 33.8665 8.63121 33.7391 8.75515C33.6117 8.87909 33.5104 9.0273 33.4413 9.19103C33.3722 9.35475 33.3366 9.53068 33.3366 9.70841C33.3366 9.88613 33.3722 10.0621 33.4413 10.2258C33.5104 10.3895 33.6117 10.5377 33.7391 10.6617C33.8665 10.7856 34.0174 10.8828 34.183 10.9474C34.3485 11.012 34.5254 11.0428 34.703 11.0379H38.027V14.2909H19.412V11.0379H22.736C22.9137 11.0428 23.0905 11.012 23.2561 10.9474C23.4216 10.8828 23.5726 10.7856 23.7 10.6617C23.8273 10.5377 23.9286 10.3895 23.9977 10.2258C24.0669 10.0621 24.1025 9.88613 24.1025 9.70841C24.1025 9.53068 24.0669 9.35475 23.9977 9.19103C23.9286 9.0273 23.8273 8.87909 23.7 8.75515C23.5726 8.63121 23.4216 8.53406 23.2561 8.46944C23.0905 8.40482 22.9137 8.37403 22.736 8.37891H19.412C19.4241 6.89334 20.0223 5.47265 21.0765 4.42582C22.1306 3.37899 23.5554 2.7907 25.041 2.78891V2.78791ZM19.412 22.6069V16.9509H38.028V22.6069C38.028 25.0755 37.0474 27.4431 35.3018 29.1887C33.5562 30.9342 31.1887 31.9149 28.72 31.9149C26.2514 31.9149 23.8839 30.9342 22.1383 29.1887C20.3927 27.4431 19.412 25.0755 19.412 22.6069ZM28.72 50.8479C26.8159 50.8458 24.9903 50.0884 23.6439 48.742C22.2975 47.3956 21.5401 45.57 21.538 43.6659V40.1659C22.6746 39.9433 23.6986 39.3331 24.4352 38.4394C25.1719 37.5457 25.5754 36.424 25.577 35.2659V34.1549C27.6347 34.7142 29.8043 34.7142 31.862 34.1549V35.2609C31.8636 36.419 32.2672 37.5407 33.0038 38.4344C33.7404 39.3281 34.7645 39.9383 35.901 40.1609V43.6609C35.9002 45.5657 35.1436 47.3924 33.7972 48.7399C32.4509 50.0874 30.6248 50.8455 28.72 50.8479ZM45.172 40.2569C46.9413 40.2566 48.6763 40.7449 50.1856 41.668C51.695 42.5911 52.9201 43.9132 53.7258 45.4883C54.5316 47.0635 54.8866 48.8305 54.7518 50.5947C54.6171 52.3588 53.9977 54.0514 52.962 55.4859C52.94 55.5159 52.923 55.5469 52.904 55.5789H46.134C45.9819 54.5592 45.4854 53.6223 44.727 52.9239C44.1652 51.1945 43.8793 49.3873 43.88 47.5689V40.2569H45.172ZM43.524 63.6899C43.5235 64.1836 43.3271 64.6569 42.9781 65.006C42.629 65.355 42.1557 65.5514 41.662 65.5519H37.73C37.2363 65.5514 36.763 65.355 36.414 65.006C36.0649 64.6569 35.8685 64.1836 35.868 63.6899V56.2429C35.8685 55.7492 36.0649 55.2759 36.414 54.9269C36.763 54.5778 37.2363 54.3814 37.73 54.3809H41.663C42.1567 54.3814 42.63 54.5778 42.9791 54.9269C43.3281 55.2759 43.5245 55.7492 43.525 56.2429V63.6889L43.524 63.6899ZM46.183 58.2379H55.048V61.6949H46.183V58.2379ZM65.42 63.6899C65.4195 64.1836 65.2231 64.6569 64.8741 65.006C64.525 65.355 64.0517 65.5514 63.558 65.5519H59.569C59.0753 65.5514 58.602 65.355 58.253 65.006C57.9039 64.6569 57.7075 64.1836 57.707 63.6899V56.2429C57.7075 55.7492 57.9039 55.2759 58.253 54.9269C58.602 54.5778 59.0753 54.3814 59.569 54.3809H63.558C64.0517 54.3814 64.525 54.5778 64.8741 54.9269C65.2231 55.2759 65.4195 55.7492 65.42 56.2429V63.6899Z" fill="black"/>
<path d="M28.72 11.0389C29.0277 11.0391 29.326 10.9326 29.564 10.7376C29.802 10.5425 29.965 10.271 30.0252 9.9692C30.0854 9.66743 30.0392 9.35413 29.8943 9.08266C29.7494 8.81119 29.5148 8.59837 29.2306 8.48044C28.9464 8.36252 28.6301 8.3468 28.3356 8.43596C28.0411 8.52512 27.7866 8.71365 27.6155 8.96941C27.4444 9.22518 27.3673 9.53235 27.3973 9.8386C27.4273 10.1448 27.5625 10.4312 27.78 10.6489C28.0298 10.8976 28.3676 11.0377 28.72 11.0389Z" fill="black"/>
</svg>
