<svg xmlns="http://www.w3.org/2000/svg" width="147.804" height="147.809" viewBox="0 0 147.804 147.809">
  <g id="XMLID_1490_" opacity="0.1">
    <g id="XMLID_330_" transform="translate(0 0)">
      <path id="XMLID_375_" d="M138,112.011h-8.661a9.755,9.755,0,0,0-5.2,1.5A26.657,26.657,0,0,0,98.08,81.346H80.031a5.079,5.079,0,0,1-5.073-5.073V71.518A26,26,0,0,0,88.344,48.8V21.577A9.807,9.807,0,0,0,92.1,13.863V2.887A2.887,2.887,0,0,0,89.21,0H54.375A18.015,18.015,0,0,0,36.38,17.995V48.8A26,26,0,0,0,49.765,71.518v4.755a5.079,5.079,0,0,1-5.073,5.073H26.644A26.632,26.632,0,0,0,4.132,122.209,28.715,28.715,0,0,0,5.9,146.329a2.887,2.887,0,0,0,5.041-2.814,22.932,22.932,0,0,1-.913-20.465,2.887,2.887,0,0,0-.3-2.867A20.855,20.855,0,0,1,26.644,87.119h2.8v15.872a37.949,37.949,0,0,1-3.62,16.122,2.888,2.888,0,0,0-.277,1.234v24.568a2.887,2.887,0,0,0,5.774,0V120.984a43.777,43.777,0,0,0,3.9-17.993V87.119H41v7.4a21.366,21.366,0,1,0,42.731,0v-7.4H89.5v15.872a43.407,43.407,0,0,0,.946,9.02H81.922a9.826,9.826,0,0,0-9.815,9.815v16.167a9.826,9.826,0,0,0,9.815,9.815h8.538a9.83,9.83,0,0,0,9.708-8.372h15.388a22.757,22.757,0,0,1-1.774,4.078,2.887,2.887,0,1,0,5.041,2.814,28.575,28.575,0,0,0,1.784-3.856,9.823,9.823,0,0,0,8.729,5.336H138a9.826,9.826,0,0,0,9.815-9.815V121.827A9.826,9.826,0,0,0,138,112.011ZM54.375,5.774H86.323v8.089a4.052,4.052,0,0,1-4.048,4.048H75.353a2.887,2.887,0,1,0,0,5.774H82.57v7.063H42.153V23.685h7.217a2.887,2.887,0,1,0,0-5.774H42.154A12.235,12.235,0,0,1,54.375,5.774ZM42.153,48.8V36.522H82.57V48.8a20.208,20.208,0,1,1-40.416,0Zm20.208,61.313A15.61,15.61,0,0,1,46.77,94.521v-7.6a10.863,10.863,0,0,0,8.769-10.645v-2.4a26.008,26.008,0,0,0,13.645,0v2.4a10.863,10.863,0,0,0,8.769,10.645v7.6A15.61,15.61,0,0,1,62.362,110.113ZM98.08,87.119a20.855,20.855,0,0,1,16.913,33.063c-.047.065-.085.133-.126.2h-14.7a9.8,9.8,0,0,0-3.055-5.765,37.581,37.581,0,0,1-1.839-11.627V87.12H98.08ZM94.5,137.993a4.046,4.046,0,0,1-4.042,4.042H81.923a4.046,4.046,0,0,1-4.042-4.042V121.827a4.046,4.046,0,0,1,4.042-4.042h8.538a4.046,4.046,0,0,1,4.042,4.042v16.167Zm5.774-11.836h19.246v7.506H100.276Zm41.764,11.836A4.046,4.046,0,0,1,138,142.035h-8.661a4.046,4.046,0,0,1-4.042-4.042V121.827a4.046,4.046,0,0,1,4.042-4.042H138a4.046,4.046,0,0,1,4.042,4.042Z" transform="translate(-0.01 0)"/>
      <path id="XMLID_382_" d="M208.878,67.814a2.888,2.888,0,1,0-2.041-.846A2.908,2.908,0,0,0,208.878,67.814Z" transform="translate(-146.527 -44.13)"/>
    </g>
  </g>
</svg>
