<svg width="17" height="13" viewBox="0 0 17 13" fill="none" xmlns="http://www.w3.org/2000/svg">
<path d="M15.9789 2.80018C15.8867 2.45298 15.7048 2.1361 15.4515 1.88128C15.1983 1.62646 14.8826 1.44262 14.5359 1.34818C12.4206 1.09213 10.2906 0.975878 8.15994 1.00018C6.02938 0.974219 3.89943 1.0888 1.78394 1.34318C1.43672 1.43806 1.12058 1.62264 0.867284 1.87839C0.61399 2.13415 0.432464 2.45205 0.340945 2.80018C0.105685 4.10486 -0.00846775 5.42849 -5.51558e-05 6.75418C-0.00797503 8.0772 0.106175 9.39813 0.340945 10.7002C0.433879 11.0446 0.616351 11.3582 0.869808 11.6092C1.12326 11.8602 1.43867 12.0396 1.78394 12.1292C3.89943 12.3836 6.02938 12.4981 8.15994 12.4722C10.2905 12.4981 12.4205 12.3836 14.5359 12.1292C14.8812 12.0396 15.1966 11.8602 15.4501 11.6092C15.7035 11.3582 15.886 11.0446 15.9789 10.7002C16.2142 9.3955 16.3284 8.07187 16.3199 6.74618C16.3279 5.42316 16.2137 4.10223 15.9789 2.80018ZM6.49094 9.18018V4.32318L10.7559 6.75018L6.49094 9.17618V9.18018Z" fill="white"/>
</svg>
